<?xml version="1.0" encoding="UTF-8"?>
<svg id="_레이어_2" data-name="레이어 2" xmlns="http://www.w3.org/2000/svg" viewBox="0 0 20 20">
  <defs>
    <style>
      .cls-1 {
        fill: #085454;
      }
    </style>
  </defs>
  <g id="_레이어_1-2" data-name="레이어 1">
    <path class="cls-1" d="M10.72,.2c-.22-.13-.47-.2-.72-.2s-.5,.07-.72,.2L.71,5.22c-.21,.13-.39,.31-.52,.52C.07,5.96,0,6.2,0,6.45c0,.25,.07,.49,.19,.71,.12,.22,.3,.4,.52,.52l8.57,5c.22,.13,.47,.19,.72,.19s.5-.07,.72-.19l8.57-5c.22-.13,.39-.31,.52-.52,.12-.22,.19-.46,.19-.71,0-.25-.07-.49-.19-.71-.12-.22-.3-.4-.52-.52L10.72,.2Zm-1.44,1.65c.22-.13,.47-.2,.72-.2s.5,.07,.72,.2l7.85,4.6-7.85,4.58c-.22,.13-.47,.19-.72,.19s-.5-.07-.72-.19L1.43,6.45,9.28,1.85ZM.12,9.51l9.18,5.17c.21,.12,.45,.18,.7,.18s.49-.06,.7-.18l9.18-5.17c.14,.32,.15,.68,.05,1.01-.11,.33-.34,.61-.64,.79l-8.57,5c-.22,.13-.47,.19-.72,.19s-.5-.07-.72-.19L.71,11.31c-.3-.18-.53-.46-.64-.79-.11-.33-.09-.69,.04-1.01ZM.12,13.01l9.18,5.17c.21,.12,.45,.18,.7,.18s.49-.06,.7-.18l9.18-5.17c.14,.32,.15,.68,.05,1.01-.11,.33-.34,.61-.64,.79l-8.57,5c-.22,.13-.47,.19-.72,.19s-.5-.07-.72-.19L.71,14.81c-.3-.18-.53-.46-.64-.79-.11-.33-.09-.69,.04-1.01Z"/>
  </g>
</svg>