<svg width="24" height="24" viewBox="0 0 24 24" fill="none" xmlns="http://www.w3.org/2000/svg">
<path d="M12.7229 2.19567C12.5042 2.06754 12.2553 2 12.0018 2C11.7483 2 11.4994 2.06754 11.2807 2.19567L2.70714 7.21675C2.49251 7.34289 2.31463 7.52299 2.19118 7.73917C2.06772 7.95534 2.003 8.20006 2.00343 8.449C2.00386 8.69794 2.06944 8.94243 2.19364 9.15817C2.31785 9.37392 2.49635 9.5534 2.71142 9.67879L11.2836 14.6742C11.5016 14.8013 11.7494 14.8682 12.0018 14.8682C12.2542 14.8682 12.502 14.8013 12.7201 14.6742L21.2922 9.67879C21.5075 9.55324 21.6861 9.3735 21.8103 9.15747C21.9344 8.94144 21.9999 8.69664 22 8.44747C22.0001 8.19829 21.935 7.95342 21.8111 7.73724C21.6871 7.52107 21.5087 7.34112 21.2936 7.21532L12.7229 2.19567ZM11.2807 3.84892C11.4992 3.72106 11.7479 3.65366 12.0011 3.65366C12.2543 3.65366 12.503 3.72106 12.7215 3.84892L20.5732 8.44635L12.7201 13.0238C12.502 13.1509 12.2542 13.2178 12.0018 13.2178C11.7494 13.2178 11.5016 13.1509 11.2836 13.0238L3.42898 8.44635L11.2807 3.84892ZM2.11655 11.5146L11.3007 16.6826C11.5141 16.8026 11.7548 16.8656 11.9997 16.8656C12.2445 16.8656 12.4852 16.8026 12.6987 16.6826L21.8828 11.5146C22.0208 11.8348 22.0368 12.1944 21.9278 12.5256C21.8187 12.8567 21.5921 13.1365 21.2908 13.3119L12.7172 18.3073C12.4994 18.4341 12.2518 18.5009 11.9997 18.5009C11.7476 18.5009 11.5 18.4341 11.2821 18.3073L2.70857 13.3119C2.40727 13.1365 2.18068 12.8567 2.0716 12.5256C1.96252 12.1944 1.97851 11.8348 2.11655 11.5146ZM2.11655 15.0137L11.3007 20.1803C11.5141 20.3002 11.7548 20.3632 11.9997 20.3632C12.2445 20.3632 12.4852 20.3002 12.6987 20.1803L21.8828 15.0137C22.0208 15.3339 22.0368 15.6935 21.9278 16.0246C21.8187 16.3558 21.5921 16.6355 21.2908 16.811L12.7172 21.8064C12.4994 21.9332 12.2518 22 11.9997 22C11.7476 22 11.5 21.9332 11.2821 21.8064L2.70857 16.811C2.40727 16.6355 2.18068 16.3558 2.0716 16.0246C1.96252 15.6935 1.97851 15.3339 2.11655 15.0137Z" fill="white"/>
</svg>
