<svg width="48" height="48" viewBox="0 0 48 48" fill="none" xmlns="http://www.w3.org/2000/svg">
<g filter="url(#filter0_d_123_531)">
<rect x="8" y="8" width="32" height="32" rx="4" fill="white"/>
</g>
<path d="M22 21.85H21.85V22V33.5C21.85 33.5928 21.8131 33.6818 21.7475 33.7475C21.6819 33.8131 21.5928 33.85 21.5 33.85H14.5C14.4072 33.85 14.3182 33.8131 14.2525 33.7475C14.1869 33.6818 14.15 33.5928 14.15 33.5V14.5C14.15 14.4072 14.1869 14.3182 14.2525 14.2525C14.3182 14.1869 14.4072 14.15 14.5 14.15H33.5C33.5928 14.15 33.6818 14.1869 33.7475 14.2525C33.8131 14.3182 33.85 14.4072 33.85 14.5V21.5C33.85 21.5928 33.8131 21.6819 33.7475 21.7475C33.6818 21.8131 33.5928 21.85 33.5 21.85H22ZM33 21.15H33.15V21V15V14.85H33H15H14.85V15V33V33.15H15H21H21.15V33V29.5V29.35H21H18.5C18.4072 29.35 18.3182 29.3131 18.2525 29.2475C18.1869 29.1819 18.15 29.0928 18.15 29C18.15 28.9072 18.1869 28.8181 18.2525 28.7525C18.3182 28.6869 18.4072 28.65 18.5 28.65H21H21.15V28.5V25.5V25.35H21H18.5C18.4072 25.35 18.3182 25.3131 18.2525 25.2475C18.1869 25.1819 18.15 25.0928 18.15 25C18.15 24.9072 18.1869 24.8181 18.2525 24.7525C18.3182 24.6869 18.4072 24.65 18.5 24.65H21H21.15V24.5V22V21.85H21H18.5C18.4072 21.85 18.3182 21.8131 18.2525 21.7475C18.1869 21.6818 18.15 21.5928 18.15 21.5C18.15 21.4072 18.1869 21.3182 18.2525 21.2525C18.3182 21.1869 18.4072 21.15 18.5 21.15H21H21.15V21V18.5C21.15 18.4072 21.1869 18.3182 21.2525 18.2525C21.3182 18.1869 21.4072 18.15 21.5 18.15C21.5928 18.15 21.6818 18.1869 21.7475 18.2525C21.8131 18.3182 21.85 18.4072 21.85 18.5V21V21.15H22H24.5H24.65V21V18.5C24.65 18.4072 24.6869 18.3182 24.7525 18.2525C24.8181 18.1869 24.9072 18.15 25 18.15C25.0928 18.15 25.1819 18.1869 25.2475 18.2525C25.3131 18.3182 25.35 18.4072 25.35 18.5V21V21.15H25.5H28.5H28.65V21V18.5C28.65 18.4072 28.6869 18.3182 28.7525 18.2525C28.8181 18.1869 28.9072 18.15 29 18.15C29.0928 18.15 29.1819 18.1869 29.2475 18.2525C29.3131 18.3182 29.35 18.4072 29.35 18.5V21V21.15H29.5H33Z" fill="#344454" stroke="#344454" stroke-width="0.3"/>
<defs>
<filter id="filter0_d_123_531" x="0" y="0" width="48" height="48" filterUnits="userSpaceOnUse" color-interpolation-filters="sRGB">
<feFlood flood-opacity="0" result="BackgroundImageFix"/>
<feColorMatrix in="SourceAlpha" type="matrix" values="0 0 0 0 0 0 0 0 0 0 0 0 0 0 0 0 0 0 127 0" result="hardAlpha"/>
<feOffset/>
<feGaussianBlur stdDeviation="4"/>
<feComposite in2="hardAlpha" operator="out"/>
<feColorMatrix type="matrix" values="0 0 0 0 0 0 0 0 0 0 0 0 0 0 0 0 0 0 0.08 0"/>
<feBlend mode="normal" in2="BackgroundImageFix" result="effect1_dropShadow_123_531"/>
<feBlend mode="normal" in="SourceGraphic" in2="effect1_dropShadow_123_531" result="shape"/>
</filter>
</defs>
</svg>
