<svg width="48" height="48" viewBox="0 0 48 48" fill="none" xmlns="http://www.w3.org/2000/svg">
<g filter="url(#filter0_d_123_512)">
<rect x="8" y="8" width="32" height="32" rx="4" fill="white"/>
</g>
<g clip-path="url(#clip0_123_512)">
<path d="M32.0001 23.3334H24.6668C24.6668 23.3334 23.5287 23.3334 23.3334 23.3334H16.0001C15.8233 23.3334 15.6537 23.4036 15.5287 23.5286C15.4037 23.6537 15.3334 23.8232 15.3334 24C15.3302 24.0867 15.3455 24.173 15.3784 24.2532C15.4113 24.3335 15.461 24.4057 15.5242 24.4651C15.5873 24.5245 15.6625 24.5696 15.7446 24.5975C15.8267 24.6254 15.9138 24.6353 16.0001 24.6267H23.3334L24.6668 24.6667H32.0001C32.1769 24.6667 32.3465 24.5965 32.4715 24.4714C32.5965 24.3464 32.6668 24.1769 32.6668 24C32.6668 23.8232 32.5965 23.6537 32.4715 23.5286C32.3465 23.4036 32.1769 23.3334 32.0001 23.3334Z" fill="#344454" stroke="#344454" stroke-width="0.3"/>
</g>
<defs>
<filter id="filter0_d_123_512" x="0" y="0" width="48" height="48" filterUnits="userSpaceOnUse" color-interpolation-filters="sRGB">
<feFlood flood-opacity="0" result="BackgroundImageFix"/>
<feColorMatrix in="SourceAlpha" type="matrix" values="0 0 0 0 0 0 0 0 0 0 0 0 0 0 0 0 0 0 127 0" result="hardAlpha"/>
<feOffset/>
<feGaussianBlur stdDeviation="4"/>
<feComposite in2="hardAlpha" operator="out"/>
<feColorMatrix type="matrix" values="0 0 0 0 0 0 0 0 0 0 0 0 0 0 0 0 0 0 0.08 0"/>
<feBlend mode="normal" in2="BackgroundImageFix" result="effect1_dropShadow_123_512"/>
<feBlend mode="normal" in="SourceGraphic" in2="effect1_dropShadow_123_512" result="shape"/>
</filter>
<clipPath id="clip0_123_512">
<rect width="24" height="24" fill="white" transform="translate(12 12)"/>
</clipPath>
</defs>
</svg>
