<svg width="48" height="48" viewBox="0 0 48 48" fill="none" xmlns="http://www.w3.org/2000/svg">
<g filter="url(#filter0_d_123_517)">
<rect x="8" y="8" width="32" height="32" rx="4" fill="white"/>
</g>
<path d="M19.4283 32C16.6694 30.4262 14.8569 27.4034 14.8569 24C14.8569 22.1917 15.3931 20.424 16.3977 18.9205C17.4023 17.4169 18.8303 16.2451 20.5009 15.5531C22.1715 14.8611 24.0099 14.68 25.7834 15.0328C27.5569 15.3856 29.186 16.2563 30.4647 17.535C31.7433 18.8136 32.6141 20.4427 32.9669 22.2163C33.3197 23.9898 33.1386 25.8281 32.4466 27.4988C31.7546 29.1694 30.5828 30.5973 29.0792 31.602C27.5757 32.6066 25.808 33.1428 23.9997 33.1428" stroke="#344454" stroke-width="1.6" stroke-linecap="round" stroke-linejoin="round"/>
<path d="M19.4287 27.4286L19.4287 32L14.8573 32" stroke="#344454" stroke-width="1.6" stroke-linecap="round" stroke-linejoin="round"/>
<defs>
<filter id="filter0_d_123_517" x="0" y="0" width="48" height="48" filterUnits="userSpaceOnUse" color-interpolation-filters="sRGB">
<feFlood flood-opacity="0" result="BackgroundImageFix"/>
<feColorMatrix in="SourceAlpha" type="matrix" values="0 0 0 0 0 0 0 0 0 0 0 0 0 0 0 0 0 0 127 0" result="hardAlpha"/>
<feOffset/>
<feGaussianBlur stdDeviation="4"/>
<feComposite in2="hardAlpha" operator="out"/>
<feColorMatrix type="matrix" values="0 0 0 0 0 0 0 0 0 0 0 0 0 0 0 0 0 0 0.08 0"/>
<feBlend mode="normal" in2="BackgroundImageFix" result="effect1_dropShadow_123_517"/>
<feBlend mode="normal" in="SourceGraphic" in2="effect1_dropShadow_123_517" result="shape"/>
</filter>
</defs>
</svg>
