<svg width="48" height="48" viewBox="0 0 48 48" fill="none" xmlns="http://www.w3.org/2000/svg">
<g filter="url(#filter0_d_123_535)">
<rect x="8" y="8" width="32" height="32" rx="4" fill="white"/>
</g>
<path d="M33.5 14H14.5C14.3674 14 14.2402 14.0527 14.1464 14.1464C14.0527 14.2402 14 14.3674 14 14.5V33.5C14 33.6326 14.0527 33.7598 14.1464 33.8536C14.2402 33.9473 14.3674 34 14.5 34H21.5C21.6326 34 21.7598 33.9473 21.8536 33.8536C21.9473 33.7598 22 33.6326 22 33.5V22H33.5C33.6326 22 33.7598 21.9473 33.8536 21.8536C33.9473 21.7598 34 21.6326 34 21.5V14.5C34 14.3674 33.9473 14.2402 33.8536 14.1464C33.7598 14.0527 33.6326 14 33.5 14ZM33 21H29.5V18.5C29.5 18.3674 29.4473 18.2402 29.3536 18.1464C29.2598 18.0527 29.1326 18 29 18C28.8674 18 28.7402 18.0527 28.6464 18.1464C28.5527 18.2402 28.5 18.3674 28.5 18.5V21H25.5V18.5C25.5 18.3674 25.4473 18.2402 25.3536 18.1464C25.2598 18.0527 25.1326 18 25 18C24.8674 18 24.7402 18.0527 24.6464 18.1464C24.5527 18.2402 24.5 18.3674 24.5 18.5V21H22V18.5C22 18.3674 21.9473 18.2402 21.8536 18.1464C21.7598 18.0527 21.6326 18 21.5 18C21.3674 18 21.2402 18.0527 21.1464 18.1464C21.0527 18.2402 21 18.3674 21 18.5V21H18.5C18.3674 21 18.2402 21.0527 18.1464 21.1464C18.0527 21.2402 18 21.3674 18 21.5C18 21.6326 18.0527 21.7598 18.1464 21.8536C18.2402 21.9473 18.3674 22 18.5 22H21V24.5H18.5C18.3674 24.5 18.2402 24.5527 18.1464 24.6464C18.0527 24.7402 18 24.8674 18 25C18 25.1326 18.0527 25.2598 18.1464 25.3536C18.2402 25.4473 18.3674 25.5 18.5 25.5H21V28.5H18.5C18.3674 28.5 18.2402 28.5527 18.1464 28.6464C18.0527 28.7402 18 28.8674 18 29C18 29.1326 18.0527 29.2598 18.1464 29.3536C18.2402 29.4473 18.3674 29.5 18.5 29.5H21V33H15V15H33V21Z" fill="#344454"/>
<path d="M21.5 33.5H32.5C33.5 33.5 33.5 33.5 33.5 32.5C33.5 31.7 33.5 24.8333 33.5 21.5" stroke="#344454" stroke-width="1.2"/>
<defs>
<filter id="filter0_d_123_535" x="0" y="0" width="48" height="48" filterUnits="userSpaceOnUse" color-interpolation-filters="sRGB">
<feFlood flood-opacity="0" result="BackgroundImageFix"/>
<feColorMatrix in="SourceAlpha" type="matrix" values="0 0 0 0 0 0 0 0 0 0 0 0 0 0 0 0 0 0 127 0" result="hardAlpha"/>
<feOffset/>
<feGaussianBlur stdDeviation="4"/>
<feComposite in2="hardAlpha" operator="out"/>
<feColorMatrix type="matrix" values="0 0 0 0 0 0 0 0 0 0 0 0 0 0 0 0 0 0 0.08 0"/>
<feBlend mode="normal" in2="BackgroundImageFix" result="effect1_dropShadow_123_535"/>
<feBlend mode="normal" in="SourceGraphic" in2="effect1_dropShadow_123_535" result="shape"/>
</filter>
</defs>
</svg>
