<svg width="48" height="48" viewBox="0 0 48 48" fill="none" xmlns="http://www.w3.org/2000/svg">
<g filter="url(#filter0_d_123_523)">
<rect x="8" y="8" width="32" height="32" rx="4" fill="white"/>
</g>
<path d="M24.6765 22.5012C24.6459 22.3322 24.5531 22.1807 24.4164 22.0767C24.2797 21.9726 24.109 21.9235 23.9379 21.939C23.7668 21.9546 23.6077 22.0336 23.4919 22.1605C23.3762 22.2875 23.3122 22.4532 23.3125 22.625V28.8152L23.3235 28.939C23.3541 29.1081 23.4469 29.2595 23.5836 29.3636C23.7203 29.4676 23.891 29.5167 24.0621 29.5012C24.2332 29.4857 24.3923 29.4067 24.5081 29.2797C24.6238 29.1527 24.6878 28.9871 24.6875 28.8152V22.625L24.6765 22.5012ZM25.0986 19.5312C25.0986 19.2577 24.99 18.9954 24.7966 18.802C24.6032 18.6086 24.3409 18.5 24.0674 18.5C23.7939 18.5 23.5316 18.6086 23.3382 18.802C23.1448 18.9954 23.0361 19.2577 23.0361 19.5312C23.0361 19.8048 23.1448 20.0671 23.3382 20.2605C23.5316 20.4539 23.7939 20.5625 24.0674 20.5625C24.3409 20.5625 24.6032 20.4539 24.7966 20.2605C24.99 20.0671 25.0986 19.8048 25.0986 19.5312ZM35 24C35 21.0826 33.8411 18.2847 31.7782 16.2218C29.7153 14.1589 26.9174 13 24 13C21.0826 13 18.2847 14.1589 16.2218 16.2218C14.1589 18.2847 13 21.0826 13 24C13 26.9174 14.1589 29.7153 16.2218 31.7782C18.2847 33.8411 21.0826 35 24 35C26.9174 35 29.7153 33.8411 31.7782 31.7782C33.8411 29.7153 35 26.9174 35 24ZM14.375 24C14.375 22.736 14.624 21.4844 15.1077 20.3167C15.5914 19.1489 16.3003 18.0879 17.1941 17.1941C18.0879 16.3003 19.1489 15.5914 20.3167 15.1077C21.4844 14.624 22.736 14.375 24 14.375C25.264 14.375 26.5156 14.624 27.6833 15.1077C28.8511 15.5914 29.9121 16.3003 30.8059 17.1941C31.6997 18.0879 32.4086 19.1489 32.8923 20.3167C33.376 21.4844 33.625 22.736 33.625 24C33.625 26.5527 32.6109 29.0009 30.8059 30.8059C29.0009 32.6109 26.5527 33.625 24 33.625C21.4473 33.625 18.9991 32.6109 17.1941 30.8059C15.3891 29.0009 14.375 26.5527 14.375 24Z" fill="#344454"/>
<defs>
<filter id="filter0_d_123_523" x="0" y="0" width="48" height="48" filterUnits="userSpaceOnUse" color-interpolation-filters="sRGB">
<feFlood flood-opacity="0" result="BackgroundImageFix"/>
<feColorMatrix in="SourceAlpha" type="matrix" values="0 0 0 0 0 0 0 0 0 0 0 0 0 0 0 0 0 0 127 0" result="hardAlpha"/>
<feOffset/>
<feGaussianBlur stdDeviation="4"/>
<feComposite in2="hardAlpha" operator="out"/>
<feColorMatrix type="matrix" values="0 0 0 0 0 0 0 0 0 0 0 0 0 0 0 0 0 0 0.08 0"/>
<feBlend mode="normal" in2="BackgroundImageFix" result="effect1_dropShadow_123_523"/>
<feBlend mode="normal" in="SourceGraphic" in2="effect1_dropShadow_123_523" result="shape"/>
</filter>
</defs>
</svg>
