<svg width="48" height="48" viewBox="0 0 48 48" fill="none" xmlns="http://www.w3.org/2000/svg">
<g filter="url(#filter0_d_123_540)">
<rect x="8" y="8" width="32" height="32" rx="4" fill="white"/>
</g>
<g clip-path="url(#clip0_123_540)">
<path d="M14.5 17.7C14.5 16.58 14.5 16.02 14.718 15.592C14.9097 15.2157 15.2157 14.9097 15.592 14.718C16.02 14.5 16.58 14.5 17.7 14.5H30.3C31.42 14.5 31.98 14.5 32.408 14.718C32.7843 14.9097 33.0903 15.2157 33.282 15.592C33.5 16.02 33.5 16.58 33.5 17.7V30.3C33.5 31.42 33.5 31.98 33.282 32.408C33.0903 32.7843 32.7843 33.0903 32.408 33.282C31.98 33.5 31.42 33.5 30.3 33.5H17.7C16.58 33.5 16.02 33.5 15.592 33.282C15.2157 33.0903 14.9097 32.7843 14.718 32.408C14.5 31.98 14.5 31.42 14.5 30.3V17.7Z" stroke="#344454" stroke-width="1.3" stroke-linecap="round"/>
<path d="M30 34L24 19M33 17L14 21M24 26.53C24 28.688 21.86 30.204 20.927 30.763C20.7981 30.8407 20.6505 30.8818 20.5 30.8818C20.3495 30.8818 20.2019 30.8407 20.073 30.763C19.14 30.204 17 28.688 17 26.529C17 24.412 18.696 23 20.5 23C22.367 23 24 24.412 24 26.53Z" stroke="#344454" stroke-width="1.3"/>
<path d="M20.5 28C21.3284 28 22 27.3284 22 26.5C22 25.6716 21.3284 25 20.5 25C19.6716 25 19 25.6716 19 26.5C19 27.3284 19.6716 28 20.5 28Z" fill="#344454"/>
<path d="M25.5858 28.5858L25.5856 28.586C25.2106 28.9611 25 29.4697 25 30C25 30.5303 25.2106 31.0389 25.5856 31.414L25.5857 31.4141L28.5857 34.4141L28.5858 34.4142C28.9608 34.7892 29.4695 34.9998 29.9998 34.9998C30.5301 34.9998 31.0387 34.7892 31.4138 34.4142L31.4139 34.4141L34.4088 31.4192C34.5964 31.2362 34.7462 31.018 34.8497 30.7771C34.9545 30.5331 35.0097 30.2706 35.012 30.0051C35.0143 29.7395 34.9637 29.4762 34.8631 29.2304C34.7626 28.9846 34.6141 28.7613 34.4263 28.5735C34.2385 28.3857 34.0152 28.2372 33.7694 28.1366C33.5236 28.0361 33.2603 27.9855 32.9947 27.9878C32.7291 27.9901 32.4667 28.0453 32.2227 28.1501C32.1459 28.1831 32.0715 28.2207 31.9998 28.2628V23C31.9998 22.4696 31.7891 21.9609 31.414 21.5858C31.0389 21.2107 30.5302 21 29.9998 21C29.4694 21 28.9606 21.2107 28.5856 21.5858C28.2105 21.9609 27.9998 22.4696 27.9998 23V28.2682C27.6983 28.0941 27.3539 28.0002 26.9998 28.0002C26.4695 28.0002 25.9608 28.2108 25.5858 28.5858Z" fill="#344454" stroke="white" stroke-width="2"/>
</g>
<defs>
<filter id="filter0_d_123_540" x="0" y="0" width="48" height="48" filterUnits="userSpaceOnUse" color-interpolation-filters="sRGB">
<feFlood flood-opacity="0" result="BackgroundImageFix"/>
<feColorMatrix in="SourceAlpha" type="matrix" values="0 0 0 0 0 0 0 0 0 0 0 0 0 0 0 0 0 0 127 0" result="hardAlpha"/>
<feOffset/>
<feGaussianBlur stdDeviation="4"/>
<feComposite in2="hardAlpha" operator="out"/>
<feColorMatrix type="matrix" values="0 0 0 0 0 0 0 0 0 0 0 0 0 0 0 0 0 0 0.08 0"/>
<feBlend mode="normal" in2="BackgroundImageFix" result="effect1_dropShadow_123_540"/>
<feBlend mode="normal" in="SourceGraphic" in2="effect1_dropShadow_123_540" result="shape"/>
</filter>
<clipPath id="clip0_123_540">
<rect width="24" height="24" fill="white" transform="translate(12 12)"/>
</clipPath>
</defs>
</svg>
