<svg width="18" height="18" viewBox="0 0 18 18" fill="none" xmlns="http://www.w3.org/2000/svg">
<path d="M3.38906 16.3125C2.98418 16.3125 2.64639 16.1717 2.37568 15.8902C2.10498 15.6087 1.96934 15.2571 1.96875 14.8354V3.16462C1.96875 2.74355 2.10439 2.39224 2.37568 2.11071C2.64697 1.82918 2.98477 1.68811 3.38906 1.6875H14.6118C15.0161 1.6875 15.3539 1.82857 15.6252 2.11071C15.8965 2.39285 16.0318 2.74416 16.0312 3.16462V14.8363C16.0312 15.2568 15.8959 15.6081 15.6252 15.8902C15.3545 16.1723 15.0164 16.3131 14.6109 16.3125H3.38906ZM2.84766 6.25598H15.1523V3.16462C15.1523 3.02386 15.0961 2.89467 14.9836 2.77706C14.8711 2.65945 14.7469 2.60095 14.6109 2.60156H3.38906C3.25371 2.60156 3.12949 2.66006 3.01641 2.77706C2.90332 2.89406 2.84707 3.02325 2.84766 3.16462V6.25598ZM2.84766 10.83H15.1523V7.17005H2.84766V10.83ZM3.38906 15.3984H14.6118C14.7466 15.3984 14.8705 15.3399 14.9836 15.2229C15.0967 15.1059 15.1529 14.9767 15.1523 14.8354V11.744H2.84766V14.8354C2.84766 14.9761 2.90391 15.1053 3.01641 15.2229C3.12891 15.3405 3.25283 15.399 3.38818 15.3984M4.40332 5.16459V3.68747H5.82275V5.16459H4.40332ZM4.40332 9.73856V8.26144H5.82275V9.73856H4.40332ZM4.40332 14.3116V12.8354H5.82275V14.3116H4.40332Z" fill="#085454"/>
</svg>
