<svg width="16" height="16" viewBox="0 0 16 16" fill="none" xmlns="http://www.w3.org/2000/svg">
<g clip-path="url(#clip0_121_1061)">
<path d="M8 8.875V1M3.625 9.75H1.875C1.64294 9.75 1.42038 9.84219 1.25628 10.0063C1.09219 10.1704 1 10.3929 1 10.625V14.125C1 14.3571 1.09219 14.5796 1.25628 14.7437C1.42038 14.9078 1.64294 15 1.875 15H14.125C14.3571 15 14.5796 14.9078 14.7437 14.7437C14.9078 14.5796 15 14.3571 15 14.125V10.625C15 10.3929 14.9078 10.1704 14.7437 10.0063C14.5796 9.84219 14.3571 9.75 14.125 9.75H12.375M11.5 5.375L8 9.75L4.5 5.375M12.375 12.375H12.3838" stroke="#1A1A1A" stroke-width="1.3" stroke-linecap="round" stroke-linejoin="round"/>
</g>
<defs>
<clipPath id="clip0_121_1061">
<rect width="16" height="16" fill="white"/>
</clipPath>
</defs>
</svg>
