<svg width="25" height="24" viewBox="0 0 25 24" fill="none" xmlns="http://www.w3.org/2000/svg">
<path d="M15.1855 11.5125L6.88379 10.05V20.8568C6.88369 20.9743 6.90678 21.0906 6.95173 21.1991C6.99667 21.3076 7.0626 21.4062 7.14573 21.4892C7.22885 21.5722 7.32754 21.6379 7.43613 21.6827C7.54472 21.7275 7.66108 21.7503 7.77854 21.75H22.1035C22.2211 21.7505 22.3376 21.7278 22.4464 21.6831C22.5552 21.6384 22.654 21.5727 22.7373 21.4897C22.8206 21.4067 22.8867 21.3081 22.9317 21.1994C22.9768 21.0908 22.9999 20.9744 22.9998 20.8568V16.875L15.1855 11.5125Z" fill="#185C37"/>
<path d="M15.1855 2.25H7.77854C7.66108 2.24971 7.54472 2.2726 7.43613 2.31736C7.32754 2.36213 7.22885 2.42789 7.14573 2.51088C7.0626 2.59386 6.99667 2.69244 6.95173 2.80096C6.90678 2.90947 6.88369 3.0258 6.88379 3.14325V7.125L15.1855 12L19.5813 13.4625L22.9998 12V7.125L15.1855 2.25Z" fill="#21A366"/>
<path d="M6.88379 7.125H15.1855V12H6.88379V7.125Z" fill="#107C41"/>
<path opacity="0.1" d="M12.8253 6.15002H6.88379V18.3375H12.8253C13.062 18.3363 13.2888 18.2419 13.4564 18.0747C13.624 17.9075 13.719 17.681 13.7208 17.4443V7.04327C13.719 6.80653 13.624 6.58002 13.4564 6.41282C13.2888 6.24562 13.062 6.1512 12.8253 6.15002Z" fill="black"/>
<path opacity="0.2" d="M12.337 6.63745H6.88379V18.825H12.337C12.5738 18.8238 12.8005 18.7294 12.9682 18.5622C13.1358 18.395 13.2308 18.1684 13.2325 17.9317V7.5307C13.2308 7.29396 13.1358 7.06744 12.9682 6.90024C12.8005 6.73305 12.5738 6.63863 12.337 6.63745Z" fill="black"/>
<path opacity="0.2" d="M12.337 6.63745H6.88379V17.85H12.337C12.5738 17.8488 12.8005 17.7544 12.9682 17.5872C13.1358 17.42 13.2308 17.1934 13.2325 16.9567V7.5307C13.2308 7.29396 13.1358 7.06744 12.9682 6.90024C12.8005 6.73305 12.5738 6.63863 12.337 6.63745Z" fill="black"/>
<path opacity="0.2" d="M11.8488 6.63745H6.88379V17.85H11.8488C12.0855 17.8488 12.3123 17.7544 12.4799 17.5872C12.6475 17.42 12.7425 17.1934 12.7443 16.9567V7.5307C12.7425 7.29396 12.6475 7.06744 12.4799 6.90024C12.3123 6.73305 12.0855 6.63863 11.8488 6.63745Z" fill="black"/>
<path d="M2.8955 6.63746H11.849C12.0862 6.63726 12.3137 6.73123 12.4816 6.89873C12.6496 7.06622 12.7441 7.29353 12.7445 7.53071V16.4692C12.7441 16.7064 12.6496 16.9337 12.4816 17.1012C12.3137 17.2687 12.0862 17.3627 11.849 17.3625H2.8955C2.77798 17.3629 2.66154 17.34 2.55286 17.2953C2.44418 17.2506 2.34541 17.1848 2.2622 17.1018C2.179 17.0189 2.113 16.9202 2.06801 16.8117C2.02301 16.7031 1.9999 16.5867 2 16.4692V7.53071C1.9999 7.41319 2.02301 7.2968 2.06801 7.18824C2.113 7.07967 2.179 6.98106 2.2622 6.89806C2.34541 6.81507 2.44418 6.74932 2.55286 6.7046C2.66154 6.65988 2.77798 6.63706 2.8955 6.63746Z" fill="url(#paint0_linear_121_985)"/>
<path d="M4.77539 14.9047L6.65864 11.9917L4.93364 9.09521H6.31889L7.26014 10.95C7.34714 11.1255 7.41014 11.256 7.43864 11.343H7.45139C7.51289 11.2025 7.57789 11.066 7.64639 10.9335L8.65289 9.09821H9.92789L8.15864 11.9782L9.97289 14.907H8.61614L7.52864 12.8737C7.47829 12.7862 7.43539 12.6946 7.40039 12.6H7.38239C7.35061 12.6922 7.30833 12.7806 7.25639 12.8632L6.13664 14.9047H4.77539Z" fill="white"/>
<path d="M22.1043 2.25001H15.1855V7.125H22.9998V3.14325C22.9999 3.02573 22.9768 2.90935 22.9318 2.80079C22.8868 2.69222 22.8208 2.59361 22.7376 2.51061C22.6544 2.42762 22.5556 2.36187 22.4469 2.31715C22.3383 2.27243 22.2218 2.24961 22.1043 2.25001Z" fill="#33C481"/>
<path d="M15.1855 12H22.9998V16.875H15.1855V12Z" fill="#107C41"/>
<path d="M16.3806 15.6182L18.366 21.1309H17.1878L16.6933 19.7491H14.6933L14.1842 21.1309H13.006L15.0424 15.6182H16.3806ZM15.0424 18.8036H16.3515L15.7115 16.9927L15.0424 18.8036ZM18.8808 15.8218H19.9863V21.1309H18.8808V15.8218ZM20.841 15.8218H21.9465V21.1309H20.841V15.8218Z" fill="white"/>
<defs>
<linearGradient id="paint0_linear_121_985" x1="3.8705" y1="5.93546" x2="10.874" y2="18.0645" gradientUnits="userSpaceOnUse">
<stop stop-color="#18884F"/>
<stop offset="0.5" stop-color="#117E43"/>
<stop offset="1" stop-color="#0B6631"/>
</linearGradient>
</defs>
</svg>
