<svg width="16" height="16" viewBox="0 0 16 16" fill="none" xmlns="http://www.w3.org/2000/svg">
<g clip-path="url(#clip0_121_1067)">
<g clip-path="url(#clip1_121_1067)">
<path d="M8.45133 7.00067C8.43092 6.88797 8.36906 6.78699 8.27792 6.71762C8.18678 6.64825 8.07298 6.61552 7.95891 6.62587C7.84485 6.63622 7.73879 6.6889 7.66162 6.77354C7.58446 6.85817 7.54178 6.96864 7.54199 7.08317V11.21L7.54933 11.2925C7.56973 11.4052 7.63159 11.5062 7.72273 11.5756C7.81387 11.6449 7.92767 11.6777 8.04174 11.6673C8.1558 11.657 8.26186 11.6043 8.33903 11.5196C8.41619 11.435 8.45887 11.3245 8.45866 11.21V7.08317L8.45133 7.00067ZM8.73274 5.02067C8.73274 4.83833 8.66031 4.66347 8.53138 4.53453C8.40245 4.4056 8.22758 4.33317 8.04524 4.33317C7.86291 4.33317 7.68804 4.4056 7.55911 4.53453C7.43018 4.66347 7.35774 4.83833 7.35774 5.02067C7.35774 5.20301 7.43018 5.37788 7.55911 5.50681C7.68804 5.63574 7.86291 5.70817 8.04524 5.70817C8.22758 5.70817 8.40245 5.63574 8.53138 5.50681C8.66031 5.37788 8.73274 5.20301 8.73274 5.02067ZM15.3337 7.99984C15.3337 6.05492 14.561 4.18965 13.1858 2.81439C11.8105 1.43912 9.94525 0.666504 8.00033 0.666504C6.0554 0.666504 4.19014 1.43912 2.81488 2.81439C1.43961 4.18965 0.666992 6.05492 0.666992 7.99984C0.666992 9.94476 1.43961 11.81 2.81488 13.1853C4.19014 14.5606 6.0554 15.3332 8.00033 15.3332C9.94525 15.3332 11.8105 14.5606 13.1858 13.1853C14.561 11.81 15.3337 9.94476 15.3337 7.99984ZM1.58366 7.99984C1.58366 7.15719 1.74963 6.32279 2.0721 5.54429C2.39457 4.76578 2.86721 4.05841 3.46306 3.46257C4.0589 2.86673 4.76627 2.39408 5.54477 2.07161C6.32328 1.74914 7.15768 1.58317 8.00033 1.58317C8.84297 1.58317 9.67737 1.74914 10.4559 2.07161C11.2344 2.39408 11.9418 2.86673 12.5376 3.46257C13.1334 4.05841 13.6061 4.76578 13.9286 5.54429C14.251 6.32279 14.417 7.15719 14.417 7.99984C14.417 9.70164 13.741 11.3337 12.5376 12.5371C11.3342 13.7405 9.70213 14.4165 8.00033 14.4165C6.29852 14.4165 4.66642 13.7405 3.46306 12.5371C2.2597 11.3337 1.58366 9.70164 1.58366 7.99984Z" fill="#1A1A1A" stroke="#1A1A1A" stroke-width="0.4"/>
</g>
</g>
<defs>
<clipPath id="clip0_121_1067">
<rect width="16" height="16" fill="white"/>
</clipPath>
<clipPath id="clip1_121_1067">
<rect width="16" height="16" fill="white"/>
</clipPath>
</defs>
</svg>
