<svg width="28" height="28" viewBox="0 0 28 28" fill="none" xmlns="http://www.w3.org/2000/svg">
<path d="M6.00833 26.3473C8.11852 26.3473 9.82917 24.6366 9.82917 22.5265C9.82917 20.4163 8.11852 18.7056 6.00833 18.7056C3.89815 18.7056 2.1875 20.4163 2.1875 22.5265C2.1875 24.6366 3.89815 26.3473 6.00833 26.3473Z" stroke="#798A89" stroke-width="1.5" stroke-linecap="round" stroke-linejoin="round"/>
<path d="M9.82917 22.5264H20.6549C21.8371 22.5264 22.9709 22.0567 23.8069 21.2207C24.6429 20.3848 25.1125 19.251 25.1125 18.0687C25.1125 16.8865 24.6429 15.7527 23.8069 14.9167C22.9709 14.0807 21.8371 13.6111 20.6549 13.6111H6.64514C5.4629 13.6111 4.32908 13.1414 3.49311 12.3055C2.65714 11.4695 2.1875 10.3357 2.1875 9.15344C2.1875 7.9712 2.65714 6.83738 3.49311 6.00141C4.32908 5.16544 5.4629 4.6958 6.64514 4.6958H17.4708" stroke="#798A89" stroke-width="1.5" stroke-linecap="round" stroke-linejoin="round"/>
<path d="M21.2915 8.51667C23.4017 8.51667 25.1124 6.80602 25.1124 4.69583C25.1124 2.58565 23.4017 0.875 21.2915 0.875C19.1813 0.875 17.4707 2.58565 17.4707 4.69583C17.4707 6.80602 19.1813 8.51667 21.2915 8.51667Z" stroke="#798A89" stroke-width="1.5" stroke-linecap="round" stroke-linejoin="round"/>
</svg>
