<svg width="28" height="28" viewBox="0 0 28 28" fill="none" xmlns="http://www.w3.org/2000/svg">
<path d="M2.18824 11.2941C1.85197 11.2941 1.56961 11.1804 1.34118 10.9529C1.11275 10.7255 0.999026 10.4431 1.00001 10.1059V2.18824C1.00001 1.85197 1.11373 1.56961 1.34118 1.34118C1.56863 1.11275 1.85099 0.999026 2.18824 1.00001H10.1059C10.4431 1.00001 10.7255 1.11373 10.9529 1.34118C11.1804 1.56863 11.2941 1.85099 11.2941 2.18824V10.1059C11.2941 10.4431 11.1804 10.7255 10.9529 10.9529C10.7255 11.1804 10.4431 11.2941 10.1059 11.2941H2.18824ZM16.8941 11.2941C16.5578 11.2941 16.2755 11.1804 16.0471 10.9529C15.8186 10.7255 15.7049 10.4431 15.7059 10.1059V2.18824C15.7059 1.85197 15.8196 1.56961 16.0471 1.34118C16.2745 1.11275 16.5569 0.999026 16.8941 1.00001H24.8118C25.149 1.00001 25.4314 1.11373 25.6588 1.34118C25.8863 1.56863 26 1.85099 26 2.18824V10.1059C26 10.4431 25.8863 10.7255 25.6588 10.9529C25.4314 11.1804 25.149 11.2941 24.8118 11.2941H16.8941ZM2.18824 26C1.85197 26 1.56961 25.8863 1.34118 25.6588C1.11275 25.4314 0.999026 25.149 1.00001 24.8118V16.8941C1.00001 16.5569 1.11373 16.2745 1.34118 16.0471C1.56863 15.8196 1.85099 15.7059 2.18824 15.7059H10.1059C10.4431 15.7059 10.7255 15.8196 10.9529 16.0471C11.1804 16.2745 11.2941 16.5569 11.2941 16.8941V24.8118C11.2941 25.148 11.1804 25.4304 10.9529 25.6588C10.7255 25.8872 10.4431 26.001 10.1059 26H2.18824ZM20.8529 26C20.6441 26 20.4691 25.9294 20.3279 25.7882C20.1868 25.6471 20.1167 25.4725 20.1176 25.2647V21.5882H16.4044C16.2142 21.5882 16.0505 21.5176 15.9132 21.3765C15.776 21.2353 15.7069 21.0603 15.7059 20.8515C15.7049 20.6426 15.7755 20.4681 15.9176 20.3279C16.0598 20.1877 16.2343 20.1176 16.4412 20.1176H20.1176V16.4044C20.1176 16.2142 20.1882 16.0505 20.3294 15.9132C20.4706 15.776 20.6456 15.7069 20.8544 15.7059C21.0632 15.7049 21.2377 15.7755 21.3779 15.9176C21.5181 16.0598 21.5882 16.2343 21.5882 16.4412V20.1176H25.3015C25.4917 20.1176 25.6559 20.1882 25.7941 20.3294C25.9314 20.4706 26 20.6456 26 20.8544C26 21.0632 25.9294 21.2377 25.7882 21.3779C25.6471 21.5181 25.4725 21.5882 25.2647 21.5882H21.5882V25.3015C21.5882 25.4917 21.5176 25.6559 21.3765 25.7941C21.2353 25.9314 21.0618 26 20.8529 26ZM17.1765 2.47059V9.82353H24.5294V2.47059H17.1765ZM2.47059 2.47059V9.82353H9.82353V2.47059H2.47059ZM2.47059 17.1765V24.5294H9.82353V17.1765H2.47059Z" fill="#798A89"/>
</svg>
