<svg width="28" height="28" viewBox="0 0 28 28" fill="none" xmlns="http://www.w3.org/2000/svg">
<path d="M5.27188 25.375C4.64206 25.375 4.1166 25.156 3.69551 24.7181C3.27441 24.2802 3.06341 23.7332 3.0625 23.0772V4.92275C3.0625 4.26774 3.2735 3.72127 3.69551 3.28333C4.11751 2.84539 4.64297 2.62595 5.27188 2.625H22.7295C23.3584 2.625 23.8839 2.84444 24.3059 3.28333C24.7279 3.72221 24.9384 4.26869 24.9375 4.92275V23.0787C24.9375 23.7327 24.727 24.2792 24.3059 24.7181C23.8848 25.157 23.3589 25.3759 22.7281 25.375H5.27188ZM4.42969 9.73153H23.5703V4.92275C23.5703 4.70378 23.4828 4.50282 23.3078 4.31987C23.1328 4.13693 22.9396 4.04593 22.7281 4.04687H5.27188C5.06133 4.04687 4.8681 4.13787 4.69219 4.31987C4.51628 4.50187 4.42878 4.70283 4.42969 4.92275V9.73153ZM4.42969 16.8466H23.5703V11.1534H4.42969V16.8466ZM5.27188 23.9531H22.7295C22.9391 23.9531 23.1319 23.8621 23.3078 23.6801C23.4837 23.4981 23.5712 23.2972 23.5703 23.0772V18.2685H4.42969V23.0772C4.42969 23.2962 4.51719 23.4972 4.69219 23.6801C4.86719 23.8631 5.05996 23.9541 5.27051 23.9531M6.84961 8.03381V5.73606H9.05762V8.03381H6.84961ZM6.84961 15.1489V12.8511H9.05762V15.1489H6.84961ZM6.84961 22.2625V19.9662H9.05762V22.2625H6.84961Z" fill="#798A89"/>
</svg>
