<svg width="28" height="28" viewBox="0 0 28 28" fill="none" xmlns="http://www.w3.org/2000/svg">
<path d="M3.43066 13.8158V5.11184C3.43066 4.45229 3.69267 3.81975 4.15904 3.35338C4.62542 2.88701 5.25795 2.625 5.91751 2.625H23.3254C23.985 2.625 24.6175 2.88701 25.0839 3.35338C25.5502 3.81975 25.8122 4.45229 25.8122 5.11184V22.5197C25.8122 23.1793 25.5502 23.8118 25.0839 24.2782C24.6175 24.7446 23.985 25.0066 23.3254 25.0066H14.6215M3.43066 11.3289H25.8122M12.1346 2.625V15.0592" stroke="#085454" stroke-width="1.5" stroke-linecap="round" stroke-linejoin="round"/>
<path d="M2.1875 20.033C2.1875 19.7032 2.3185 19.3869 2.55169 19.1537C2.78488 18.9206 3.10115 18.7896 3.43092 18.7896H8.4046C8.73438 18.7896 9.05065 18.9206 9.28384 19.1537C9.51702 19.3869 9.64803 19.7032 9.64803 20.033V25.0067C9.64803 25.3364 9.51702 25.6527 9.28384 25.8859C9.05065 26.1191 8.73438 26.2501 8.4046 26.2501H3.43092C3.10115 26.2501 2.78488 26.1191 2.55169 25.8859C2.3185 25.6527 2.1875 25.3364 2.1875 25.0067V20.033Z" stroke="#085454" stroke-width="1.5" stroke-linecap="round" stroke-linejoin="round"/>
</svg>
