<svg width="28" height="28" viewBox="0 0 28 28" fill="none" xmlns="http://www.w3.org/2000/svg">
<g clip-path="url(#clip0_150_71)">
<path d="M25.1562 17.5C26.4042 18.2015 27.125 19.0293 27.125 19.916C27.125 22.4477 21.2487 24.5 14 24.5C6.75126 24.5 0.875 22.4477 0.875 19.916C0.875 19.0293 1.59574 18.2015 2.84375 17.5" stroke="#085454" stroke-width="1.4" stroke-linecap="round" stroke-linejoin="round"/>
<path d="M12.25 21L16.625 24.5L12.25 28" fill="#085454"/>
<mask id="path-3-inside-1_150_71" fill="white">
<path d="M7.07583 1.44737C6.97914 1.44737 6.88641 1.48549 6.81803 1.55335C6.74966 1.62121 6.71125 1.71324 6.71125 1.80921L6.70833 14.1118C6.70833 14.3116 6.87167 14.4737 7.07292 14.4737H9.625V15.9211H7.07292C6.06667 15.9211 5.25 15.1105 5.25 14.1118L5.25292 1.80921C5.25292 0.810526 6.06958 0 7.07583 0H13.6427C14.649 0 15.4656 0.810526 15.4656 1.81066L15.4627 4.70395C15.4627 4.90368 15.6246 5.06579 15.8273 5.06579H16.5521C17.0229 5.0654 17.4757 5.24585 17.8155 5.56934C18.1553 5.89282 18.3558 6.33426 18.375 6.80118C18.0429 6.61105 17.6764 6.48774 17.2963 6.43832C16.9162 6.3889 16.53 6.41433 16.1598 6.51316H15.8273C15.5878 6.51316 15.3506 6.46631 15.1294 6.3753C14.9081 6.28429 14.7071 6.15089 14.5378 5.98274C14.3685 5.81459 14.2342 5.61497 14.1427 5.3953C14.0512 5.17563 14.0042 4.94021 14.0044 4.7025L14.0073 1.80921C14.0073 1.71324 13.9689 1.62121 13.9005 1.55335C13.8321 1.48549 13.7394 1.44737 13.6427 1.44737H7.07583ZM17.9098 8.25C17.64 8.00137 17.2855 7.86319 16.9174 7.86319C16.5493 7.86319 16.1947 8.00137 15.925 8.25L11.7833 12.0667C11.5625 12.27 11.3864 12.5163 11.2659 12.7903C11.1455 13.0642 11.0833 13.3599 11.0833 13.6588V18.8158C11.0833 19.1997 11.237 19.5678 11.5105 19.8392C11.784 20.1107 12.1549 20.2632 12.5417 20.2632H14.7292C15.1159 20.2632 15.4869 20.1107 15.7604 19.8392C16.0339 19.5678 16.1875 19.1997 16.1875 18.8158V17.3684H17.6458V18.8158C17.6458 19.1997 17.7995 19.5678 18.073 19.8392C18.3465 20.1107 18.7174 20.2632 19.1042 20.2632H21.2917C21.6784 20.2632 22.0494 20.1107 22.3229 19.8392C22.5964 19.5678 22.75 19.1997 22.75 18.8158V13.6574C22.75 13.3585 22.6879 13.0628 22.5674 12.7888C22.447 12.5148 22.2708 12.2685 22.05 12.0653L17.9098 8.25ZM12.775 13.1276L16.9167 9.30947L21.0583 13.1276C21.1318 13.1953 21.1905 13.2772 21.2306 13.3684C21.2708 13.4595 21.2915 13.5579 21.2917 13.6574V18.8158H19.1042V17.3684C19.1042 16.9846 18.9505 16.6164 18.677 16.345C18.4035 16.0735 18.0326 15.9211 17.6458 15.9211H16.1875C15.8007 15.9211 15.4298 16.0735 15.1563 16.345C14.8828 16.6164 14.7292 16.9846 14.7292 17.3684V18.8158H12.5417V13.6574C12.5418 13.5579 12.5626 13.4595 12.6027 13.3684C12.6429 13.2772 12.7015 13.1953 12.775 13.1276ZM9.625 3.61842C9.625 3.81035 9.54818 3.99443 9.41143 4.13014C9.27469 4.26586 9.08922 4.34211 8.89583 4.34211C8.70245 4.34211 8.51698 4.26586 8.38023 4.13014C8.24349 3.99443 8.16667 3.81035 8.16667 3.61842C8.16667 3.42649 8.24349 3.24242 8.38023 3.1067C8.51698 2.97098 8.70245 2.89474 8.89583 2.89474C9.08922 2.89474 9.27469 2.97098 9.41143 3.1067C9.54818 3.24242 9.625 3.42649 9.625 3.61842ZM8.89583 7.23684C9.08922 7.23684 9.27469 7.1606 9.41143 7.02488C9.54818 6.88916 9.625 6.70509 9.625 6.51316C9.625 6.32122 9.54818 6.13715 9.41143 6.00144C9.27469 5.86572 9.08922 5.78947 8.89583 5.78947C8.70245 5.78947 8.51698 5.86572 8.38023 6.00144C8.24349 6.13715 8.16667 6.32122 8.16667 6.51316C8.16667 6.70509 8.24349 6.88916 8.38023 7.02488C8.51698 7.1606 8.70245 7.23684 8.89583 7.23684ZM9.625 9.40789C9.625 9.59983 9.54818 9.7839 9.41143 9.91962C9.27469 10.0553 9.08922 10.1316 8.89583 10.1316C8.70245 10.1316 8.51698 10.0553 8.38023 9.91962C8.24349 9.7839 8.16667 9.59983 8.16667 9.40789C8.16667 9.21596 8.24349 9.03189 8.38023 8.89617C8.51698 8.76046 8.70245 8.68421 8.89583 8.68421C9.08922 8.68421 9.27469 8.76046 9.41143 8.89617C9.54818 9.03189 9.625 9.21596 9.625 9.40789ZM11.8125 4.34211C12.0059 4.34211 12.1914 4.26586 12.3281 4.13014C12.4648 3.99443 12.5417 3.81035 12.5417 3.61842C12.5417 3.42649 12.4648 3.24242 12.3281 3.1067C12.1914 2.97098 12.0059 2.89474 11.8125 2.89474C11.6191 2.89474 11.4336 2.97098 11.2969 3.1067C11.1602 3.24242 11.0833 3.42649 11.0833 3.61842C11.0833 3.81035 11.1602 3.99443 11.2969 4.13014C11.4336 4.26586 11.6191 4.34211 11.8125 4.34211ZM12.5417 6.51316C12.5417 6.70509 12.4648 6.88916 12.3281 7.02488C12.1914 7.1606 12.0059 7.23684 11.8125 7.23684C11.6191 7.23684 11.4336 7.1606 11.2969 7.02488C11.1602 6.88916 11.0833 6.70509 11.0833 6.51316C11.0833 6.32122 11.1602 6.13715 11.2969 6.00144C11.4336 5.86572 11.6191 5.78947 11.8125 5.78947C12.0059 5.78947 12.1914 5.86572 12.3281 6.00144C12.4648 6.13715 12.5417 6.32122 12.5417 6.51316ZM11.8125 10.1316C12.0059 10.1316 12.1914 10.0553 12.3281 9.91962C12.4648 9.7839 12.5417 9.59983 12.5417 9.40789C12.5417 9.21596 12.4648 9.03189 12.3281 8.89617C12.1914 8.76046 12.0059 8.68421 11.8125 8.68421C11.6191 8.68421 11.4336 8.76046 11.2969 8.89617C11.1602 9.03189 11.0833 9.21596 11.0833 9.40789C11.0833 9.59983 11.1602 9.7839 11.2969 9.91962C11.4336 10.0553 11.6191 10.1316 11.8125 10.1316Z"/>
</mask>
<path d="M7.07583 1.44737C6.97914 1.44737 6.88641 1.48549 6.81803 1.55335C6.74966 1.62121 6.71125 1.71324 6.71125 1.80921L6.70833 14.1118C6.70833 14.3116 6.87167 14.4737 7.07292 14.4737H9.625V15.9211H7.07292C6.06667 15.9211 5.25 15.1105 5.25 14.1118L5.25292 1.80921C5.25292 0.810526 6.06958 0 7.07583 0H13.6427C14.649 0 15.4656 0.810526 15.4656 1.81066L15.4627 4.70395C15.4627 4.90368 15.6246 5.06579 15.8273 5.06579H16.5521C17.0229 5.0654 17.4757 5.24585 17.8155 5.56934C18.1553 5.89282 18.3558 6.33426 18.375 6.80118C18.0429 6.61105 17.6764 6.48774 17.2963 6.43832C16.9162 6.3889 16.53 6.41433 16.1598 6.51316H15.8273C15.5878 6.51316 15.3506 6.46631 15.1294 6.3753C14.9081 6.28429 14.7071 6.15089 14.5378 5.98274C14.3685 5.81459 14.2342 5.61497 14.1427 5.3953C14.0512 5.17563 14.0042 4.94021 14.0044 4.7025L14.0073 1.80921C14.0073 1.71324 13.9689 1.62121 13.9005 1.55335C13.8321 1.48549 13.7394 1.44737 13.6427 1.44737H7.07583ZM17.9098 8.25C17.64 8.00137 17.2855 7.86319 16.9174 7.86319C16.5493 7.86319 16.1947 8.00137 15.925 8.25L11.7833 12.0667C11.5625 12.27 11.3864 12.5163 11.2659 12.7903C11.1455 13.0642 11.0833 13.3599 11.0833 13.6588V18.8158C11.0833 19.1997 11.237 19.5678 11.5105 19.8392C11.784 20.1107 12.1549 20.2632 12.5417 20.2632H14.7292C15.1159 20.2632 15.4869 20.1107 15.7604 19.8392C16.0339 19.5678 16.1875 19.1997 16.1875 18.8158V17.3684H17.6458V18.8158C17.6458 19.1997 17.7995 19.5678 18.073 19.8392C18.3465 20.1107 18.7174 20.2632 19.1042 20.2632H21.2917C21.6784 20.2632 22.0494 20.1107 22.3229 19.8392C22.5964 19.5678 22.75 19.1997 22.75 18.8158V13.6574C22.75 13.3585 22.6879 13.0628 22.5674 12.7888C22.447 12.5148 22.2708 12.2685 22.05 12.0653L17.9098 8.25ZM12.775 13.1276L16.9167 9.30947L21.0583 13.1276C21.1318 13.1953 21.1905 13.2772 21.2306 13.3684C21.2708 13.4595 21.2915 13.5579 21.2917 13.6574V18.8158H19.1042V17.3684C19.1042 16.9846 18.9505 16.6164 18.677 16.345C18.4035 16.0735 18.0326 15.9211 17.6458 15.9211H16.1875C15.8007 15.9211 15.4298 16.0735 15.1563 16.345C14.8828 16.6164 14.7292 16.9846 14.7292 17.3684V18.8158H12.5417V13.6574C12.5418 13.5579 12.5626 13.4595 12.6027 13.3684C12.6429 13.2772 12.7015 13.1953 12.775 13.1276ZM9.625 3.61842C9.625 3.81035 9.54818 3.99443 9.41143 4.13014C9.27469 4.26586 9.08922 4.34211 8.89583 4.34211C8.70245 4.34211 8.51698 4.26586 8.38023 4.13014C8.24349 3.99443 8.16667 3.81035 8.16667 3.61842C8.16667 3.42649 8.24349 3.24242 8.38023 3.1067C8.51698 2.97098 8.70245 2.89474 8.89583 2.89474C9.08922 2.89474 9.27469 2.97098 9.41143 3.1067C9.54818 3.24242 9.625 3.42649 9.625 3.61842ZM8.89583 7.23684C9.08922 7.23684 9.27469 7.1606 9.41143 7.02488C9.54818 6.88916 9.625 6.70509 9.625 6.51316C9.625 6.32122 9.54818 6.13715 9.41143 6.00144C9.27469 5.86572 9.08922 5.78947 8.89583 5.78947C8.70245 5.78947 8.51698 5.86572 8.38023 6.00144C8.24349 6.13715 8.16667 6.32122 8.16667 6.51316C8.16667 6.70509 8.24349 6.88916 8.38023 7.02488C8.51698 7.1606 8.70245 7.23684 8.89583 7.23684ZM9.625 9.40789C9.625 9.59983 9.54818 9.7839 9.41143 9.91962C9.27469 10.0553 9.08922 10.1316 8.89583 10.1316C8.70245 10.1316 8.51698 10.0553 8.38023 9.91962C8.24349 9.7839 8.16667 9.59983 8.16667 9.40789C8.16667 9.21596 8.24349 9.03189 8.38023 8.89617C8.51698 8.76046 8.70245 8.68421 8.89583 8.68421C9.08922 8.68421 9.27469 8.76046 9.41143 8.89617C9.54818 9.03189 9.625 9.21596 9.625 9.40789ZM11.8125 4.34211C12.0059 4.34211 12.1914 4.26586 12.3281 4.13014C12.4648 3.99443 12.5417 3.81035 12.5417 3.61842C12.5417 3.42649 12.4648 3.24242 12.3281 3.1067C12.1914 2.97098 12.0059 2.89474 11.8125 2.89474C11.6191 2.89474 11.4336 2.97098 11.2969 3.1067C11.1602 3.24242 11.0833 3.42649 11.0833 3.61842C11.0833 3.81035 11.1602 3.99443 11.2969 4.13014C11.4336 4.26586 11.6191 4.34211 11.8125 4.34211ZM12.5417 6.51316C12.5417 6.70509 12.4648 6.88916 12.3281 7.02488C12.1914 7.1606 12.0059 7.23684 11.8125 7.23684C11.6191 7.23684 11.4336 7.1606 11.2969 7.02488C11.1602 6.88916 11.0833 6.70509 11.0833 6.51316C11.0833 6.32122 11.1602 6.13715 11.2969 6.00144C11.4336 5.86572 11.6191 5.78947 11.8125 5.78947C12.0059 5.78947 12.1914 5.86572 12.3281 6.00144C12.4648 6.13715 12.5417 6.32122 12.5417 6.51316ZM11.8125 10.1316C12.0059 10.1316 12.1914 10.0553 12.3281 9.91962C12.4648 9.7839 12.5417 9.59983 12.5417 9.40789C12.5417 9.21596 12.4648 9.03189 12.3281 8.89617C12.1914 8.76046 12.0059 8.68421 11.8125 8.68421C11.6191 8.68421 11.4336 8.76046 11.2969 8.89617C11.1602 9.03189 11.0833 9.21596 11.0833 9.40789C11.0833 9.59983 11.1602 9.7839 11.2969 9.91962C11.4336 10.0553 11.6191 10.1316 11.8125 10.1316Z" fill="#085454" stroke="#085454" stroke-width="0.4" mask="url(#path-3-inside-1_150_71)"/>
</g>
<defs>
<clipPath id="clip0_150_71">
<rect width="28" height="28" fill="white"/>
</clipPath>
</defs>
</svg>
