<svg width="28" height="28" viewBox="0 0 28 28" fill="none" xmlns="http://www.w3.org/2000/svg">
<g opacity="0.5">
<path d="M27.2537 10.2595V10.2524C27.4634 9.01813 27.5629 8.1988 27.5629 7.75189C27.5629 7.0638 27.4634 6.69138 27.2679 6.6098H27.0582H27.0511L26.55 6.79779L26.2727 6.91129C26.1555 6.98932 26.0524 7.0709 25.96 7.15957L25.4446 7.6313L24.4957 8.76985L24.4886 8.78049V9.33025C24.4886 10.7384 24.3891 11.8166 24.1936 12.526V12.941C24.1936 13.0899 24.1332 13.3063 24.0194 13.6007C24.0194 13.6007 23.8453 14.0263 23.8168 14.1008C23.5005 14.2001 23.2197 14.2675 22.9816 14.303C22.6049 14.3704 22.2743 14.3916 22.0007 14.3704L20.9238 14.271L19.5661 14.4342C19.5732 14.4342 18.8659 14.3704 18.8659 14.3704C18.4288 14.3704 17.9241 14.4555 17.359 14.6293C17.0675 14.5442 17.0178 14.4803 17.0107 14.4519C17.0249 14.4342 17.0604 14.3952 17.0604 14.3952L17.2595 13.2318L17.558 11.7705C17.7322 11.0044 17.8601 10.4901 17.9312 10.2489C18.0769 9.59981 18.1942 9.02167 18.2724 8.53221C18.3968 8.24491 18.4608 8.01436 18.4608 7.83702C18.4608 7.49652 18.3506 7.24824 18.1373 7.08863C17.9276 6.93611 17.6291 6.85454 17.2488 6.85454C16.9005 6.85454 16.6339 6.90774 16.4598 7.01415L15.6317 7.66322L15.6246 7.67032V7.67741C15.5464 7.86539 15.5073 7.98954 15.5002 8.07111C15.4717 8.16688 15.4575 8.38324 15.4575 8.7131L15.3473 9.74169C15.127 11.7847 14.8889 13.4872 14.633 14.8031C14.537 15.0939 14.37 15.4096 14.1318 15.7324C13.8511 16.1119 13.6733 16.385 13.6094 16.541V16.5552V16.5659C13.7053 16.9596 13.9826 17.5342 14.4624 18.3145C14.4233 18.3712 14.3984 18.4599 14.3984 18.6089C14.3984 18.6053 14.3522 18.9316 14.3522 18.9316V18.9423V18.9494C14.3664 18.9919 14.3842 19.1019 14.3842 19.3644C14.3842 19.6978 14.4339 20.1659 14.537 20.7654L14.6578 21.7833C14.768 22.5636 14.8284 22.7091 14.8675 22.7481C14.928 22.8545 15.0808 22.9112 15.3189 22.9112C15.9551 22.9112 16.538 22.6275 17.0427 22.0671C17.3377 21.7443 17.6895 21.1839 18.1018 20.4H18.1054V20.3859C18.1054 20.2688 17.9845 20.2085 17.7499 20.2085C17.7464 20.2085 17.6113 20.2333 17.6113 20.2333L17.5083 20.2582L17.3554 20.4781L17.1386 20.6944C17.1386 20.6944 17.0924 20.7051 17.0071 20.7051C16.7157 20.7051 16.5664 20.2085 16.5664 19.2367C16.5664 19.2367 16.7512 17.4951 16.7619 17.3675C16.7797 17.3497 17.16 16.9915 17.16 16.9915C17.16 16.9915 17.6469 16.6687 17.686 16.6404C18.2084 16.6404 18.6989 16.5375 19.1432 16.3318C19.4239 16.2041 20.2058 16.0729 21.4569 15.9523L22.4734 15.821C22.4734 15.821 23.2766 15.6756 23.4685 15.6437C23.465 15.782 23.4508 15.9381 23.4259 16.1119L23.2837 16.768L22.8679 18.7046L22.5267 20.0773C22.5267 20.2724 22.4343 20.7051 22.253 21.3612C22.253 21.3683 22.1642 22.8261 22.1642 22.8261L22.0327 23.1808L21.9189 23.5745L22.0327 24.0569L22.086 24.5038V24.5215L22.1037 24.5286C22.2246 24.5995 22.3206 24.635 22.3916 24.6421L22.8181 24.7095H22.8288L23.2197 24.5073C23.2233 24.5073 23.4685 24.3406 23.4685 24.3406C23.5965 24.1668 23.7173 23.844 23.8417 23.3759L24.0763 22.5317C24.3073 21.8188 24.4601 21.3009 24.549 20.9463L25.0643 19.4885L25.1532 18.9316C25.1816 18.733 25.1994 18.5628 25.1994 18.4102C25.1994 18.3074 25.2492 18.1761 25.3522 18.0165C25.4589 17.8534 25.5228 17.7221 25.5406 17.637C25.5406 17.4526 25.6117 17.0979 25.7467 16.5942L26.0559 15.4522C26.1803 15.14 26.2408 14.7924 26.2408 14.42C26.5393 13.7958 26.845 12.6891 27.1435 11.1321L27.1897 10.9015L27.2572 10.6532C27.2572 10.6532 27.1968 10.3695 27.1933 10.3411C27.2075 10.3269 27.2537 10.2595 27.2537 10.2595Z" fill="#62BB46"/>
<path d="M13.0899 6.24445C12.7913 6.24445 12.5425 6.27282 12.3435 6.32957L12.1125 6.41115L11.1635 6.75874L9.88758 7.23048C8.1354 7.90793 6.61067 8.7308 5.35251 9.68136C4.39645 10.5539 3.72472 11.5399 3.35154 12.6075C3.35154 12.9693 3.33732 13.1999 3.30889 13.2992C3.35154 13.6893 3.46527 14.0156 3.65008 14.2817C3.82068 14.5335 3.95929 14.6576 4.07302 14.6825C4.06592 14.7215 4.05525 14.7924 4.05525 14.7924C4.05525 14.9981 4.14055 15.1897 4.3076 15.3564C5.08595 15.97 6.02069 16.9489 7.08337 18.2612C7.37837 18.6301 7.52409 18.9529 7.52409 19.2295C7.52409 19.2295 7.51342 19.3395 7.50632 19.3821C7.37126 19.4636 7.24331 19.5559 7.11892 19.6623C6.94121 19.8148 6.83458 19.9602 6.8026 20.095C6.74573 20.1375 6.70664 20.1695 6.70664 20.1695C6.63555 20.2262 6.57158 20.3007 6.51116 20.4V20.4071C6.51116 20.4071 6.5076 20.5632 6.5076 20.588C6.48273 20.6093 6.04912 20.9533 6.04912 20.9533L5.40227 21.4002C5.23878 21.5102 5.06818 21.5811 4.89403 21.6201C4.87626 21.5988 4.83005 21.5456 4.83005 21.5456C4.83005 21.5456 4.81228 21.5315 4.80162 21.5173C4.81584 21.4747 4.86204 21.4144 4.98999 21.3257L5.73991 21.0668C5.9034 20.9781 5.97804 20.8611 5.97093 20.7157C5.95671 20.5312 5.84654 20.4319 5.65461 20.4319L5.42359 20.439L2.44879 21.5811L1.92277 21.7797L1.46785 22.0103L1.0378 22.2054L0.621963 22.5033C0.494014 22.6274 0.433594 22.8154 0.433594 23.0637C0.433594 23.2233 0.479797 23.3475 0.575759 23.4255C0.696599 23.5567 0.892077 23.6667 1.16219 23.7447L1.80904 23.9398C2.17512 23.9398 2.48077 23.8972 2.73312 23.805L3.69984 23.4681L4.42488 23.1808C4.78385 22.936 5.28498 22.67 5.91406 22.3792L7.26819 21.7514C7.65204 21.5102 7.92926 21.3222 8.08919 21.191L8.44105 20.8717C8.51924 20.8008 8.6081 20.7334 8.70761 20.6731C8.84622 20.6518 8.98483 20.6376 9.12345 20.627C9.24784 20.627 9.41133 20.6022 9.60325 20.5738C9.948 20.5206 10.3781 20.4568 10.7548 20.5312H10.7726L10.7868 20.5135L10.8579 20.4284C10.9467 20.3504 10.9965 20.3255 11.0249 20.3149L11.4407 20.3468L11.7748 20.4319H11.789L11.9099 20.3716L12.0698 20.2723C12.2369 20.1304 12.3186 20.0134 12.3257 19.9141C12.3293 19.8644 12.3151 19.8219 12.2831 19.7864H12.276L12.2689 19.7793C11.4478 19.4565 10.7655 19.2331 10.2252 19.1019C10.1684 19.0664 10.0937 19.0416 9.9871 19.0345C10.0404 18.8216 10.0688 18.5947 10.0688 18.3535C10.0688 17.7931 9.83783 17.1688 9.3829 16.4914L8.0501 14.9414C7.63071 14.4555 7.26819 13.9482 6.97675 13.4304C6.80971 13.1502 6.70664 12.9516 6.65688 12.8345C6.51471 12.4905 6.44008 12.1464 6.44008 11.8166C6.62489 11.2562 7.0194 10.6993 7.60583 10.1744C8.25268 9.59269 8.92797 9.1848 9.61747 8.95425L9.685 8.93297C9.685 8.93297 9.72409 8.95425 9.7703 8.98263C9.74897 9.12096 9.64235 9.24155 9.44332 9.34441L8.76092 9.69555C8.54057 9.85871 8.41262 10.0041 8.35931 10.1389V10.2418C8.35931 10.4262 8.46593 10.5433 8.68273 10.5894C8.69695 10.5894 8.94574 10.5468 8.94574 10.5468C10.2999 10.1105 11.7997 9.3515 13.4097 8.28744C13.4524 8.27326 13.4915 8.24843 13.5199 8.21651C13.5448 8.18104 13.5945 8.08173 13.655 7.94694C13.7865 7.64901 13.8753 7.42555 13.9215 7.28723C13.9357 7.20919 13.9464 7.12762 13.9464 7.0354C13.9464 6.51756 13.6621 6.25509 13.097 6.25509L13.0899 6.24445Z" fill="#312F30"/>
<path d="M3.99812 7.07796C3.99812 7.07796 4.26823 7.85827 5.04303 7.59935C5.78229 7.35107 7.27503 7.10279 7.28924 7.09924H7.29635L8.30573 6.09193C8.31283 6.08484 9.06276 4.58451 9.06276 4.58451V4.57742V3.30409L8.28795 2.78979H7.26792L6.00976 3.54528L4.74804 4.30076C4.74804 4.30076 4.50636 5.02078 4.5028 5.04915C4.43172 5.08462 3.70312 5.48187 3.70312 6.08129C3.70312 6.15932 3.71734 6.24445 3.74222 6.32957L3.99456 7.07796H3.99812Z" fill="#312F30"/>
</g>
</svg>
