<svg width="27" height="27" viewBox="0 0 27 27" fill="none" xmlns="http://www.w3.org/2000/svg">
<path d="M26.2801 9.89316V9.88632C26.4823 8.69609 26.5782 7.90603 26.5782 7.47508C26.5782 6.81156 26.4823 6.45244 26.2938 6.37378H26.0916H26.0847L25.6015 6.55505L25.3342 6.6645C25.2211 6.73974 25.1217 6.8184 25.0326 6.90391L24.5356 7.3588L23.6206 8.45668L23.6137 8.46694V8.99707C23.6137 10.3549 23.5177 11.3946 23.3292 12.0787V12.4788C23.3292 12.6225 23.271 12.8311 23.1613 13.115C23.1613 13.115 22.9934 13.5254 22.966 13.5972C22.6609 13.693 22.3902 13.758 22.1606 13.7922C21.7973 13.8572 21.4786 13.8777 21.2147 13.8572L20.1762 13.7614L18.867 13.9187C18.8739 13.9187 18.1919 13.8572 18.1919 13.8572C17.7703 13.8572 17.2837 13.9393 16.7387 14.1068C16.4577 14.0248 16.4097 13.9632 16.4029 13.9358C16.4166 13.9187 16.4509 13.8811 16.4509 13.8811L16.6428 12.7593L16.9307 11.3502C17.0986 10.6114 17.222 10.1155 17.2905 9.8829C17.431 9.25701 17.5441 8.69951 17.6195 8.22753C17.7395 7.95049 17.8012 7.72818 17.8012 7.55717C17.8012 7.22883 17.6949 6.98941 17.4893 6.83551C17.2871 6.68844 16.9992 6.60977 16.6325 6.60977C16.2966 6.60977 16.0396 6.66108 15.8717 6.76368L15.0731 7.38958L15.0663 7.39642V7.40326C14.9909 7.58453 14.9532 7.70424 14.9463 7.7829C14.9189 7.87525 14.9052 8.08388 14.9052 8.40196L14.7989 9.39381C14.5865 11.3638 14.3568 13.0055 14.1101 14.2744C14.0175 14.5549 13.8565 14.8593 13.6268 15.1705C13.3561 15.5365 13.1847 15.7998 13.123 15.9503V15.964V15.9743C13.2156 16.3539 13.4829 16.908 13.9456 17.6604C13.9079 17.7152 13.8839 17.8007 13.8839 17.9443C13.8839 17.9409 13.8393 18.2555 13.8393 18.2555V18.2658V18.2726C13.853 18.3137 13.8702 18.4197 13.8702 18.6728C13.8702 18.9943 13.9182 19.4458 14.0175 20.0238L14.1341 21.0054C14.2403 21.7578 14.2986 21.8981 14.3363 21.9357C14.3945 22.0383 14.5419 22.093 14.7715 22.093C15.385 22.093 15.9471 21.8194 16.4337 21.279C16.7182 20.9678 17.0575 20.4274 17.455 19.6715H17.4585V19.6578C17.4585 19.545 17.3419 19.4868 17.1157 19.4868C17.1123 19.4868 16.9821 19.5108 16.9821 19.5108L16.8827 19.5347L16.7353 19.7468L16.5263 19.9554C16.5263 19.9554 16.4817 19.9656 16.3994 19.9656C16.1184 19.9656 15.9745 19.4868 15.9745 18.5497C15.9745 18.5497 16.1527 16.8704 16.163 16.7472C16.1801 16.7301 16.5468 16.3847 16.5468 16.3847C16.5468 16.3847 17.0163 16.0735 17.054 16.0461C17.5578 16.0461 18.0308 15.9469 18.4592 15.7485C18.7299 15.6254 19.4839 15.4989 20.6903 15.3826L21.6705 15.256C21.6705 15.256 22.445 15.1158 22.6301 15.085C22.6267 15.2184 22.613 15.3689 22.589 15.5365L22.4519 16.1692L22.0509 18.0367L21.7219 19.3603C21.7219 19.5484 21.6328 19.9656 21.458 20.5984C21.458 20.6052 21.3723 22.0109 21.3723 22.0109L21.2455 22.3529L21.1358 22.7326L21.2455 23.1977L21.2969 23.6287V23.6458L21.3141 23.6526C21.4306 23.721 21.5231 23.7552 21.5917 23.7621L22.0029 23.827H22.0132L22.3902 23.6321C22.3936 23.6321 22.6301 23.4713 22.6301 23.4713C22.7535 23.3038 22.87 22.9925 22.99 22.5411L23.2161 21.727C23.4389 21.0396 23.5863 20.5402 23.672 20.1982L24.1689 18.7925L24.2546 18.2555C24.282 18.064 24.2991 17.8998 24.2991 17.7528C24.2991 17.6536 24.3471 17.527 24.4465 17.3731C24.5493 17.2158 24.611 17.0893 24.6282 17.0072C24.6282 16.8293 24.6967 16.4873 24.8269 16.0016L25.1251 14.9003C25.245 14.5994 25.3033 14.2642 25.3033 13.9051C25.5912 13.3031 25.8859 12.236 26.1738 10.7345L26.2184 10.5122L26.2835 10.2728C26.2835 10.2728 26.2252 9.99919 26.2218 9.97183C26.2355 9.95815 26.2801 9.89316 26.2801 9.89316Z" fill="#62BB46"/>
<path d="M12.6222 6.02142C12.3343 6.02142 12.0944 6.04878 11.9025 6.10351L11.6797 6.18217L10.7647 6.51735L9.53432 6.97224C7.84471 7.6255 6.37444 8.41898 5.16121 9.33559C4.2393 10.177 3.59155 11.1278 3.2317 12.1573C3.2317 12.5061 3.21799 12.7284 3.19057 12.8242C3.2317 13.2004 3.34137 13.5151 3.51958 13.7716C3.68409 14.0144 3.81775 14.1341 3.92742 14.1581C3.92057 14.1957 3.91028 14.2641 3.91028 14.2641C3.91028 14.4625 3.99254 14.6472 4.15362 14.8079C4.90417 15.3996 5.80552 16.3436 6.83026 17.609C7.11471 17.9647 7.25523 18.276 7.25523 18.5428C7.25523 18.5428 7.24495 18.6488 7.23809 18.6898C7.10786 18.7685 6.98448 18.8574 6.86453 18.96C6.69317 19.1071 6.59035 19.2473 6.55951 19.3773C6.50467 19.4183 6.46697 19.4491 6.46697 19.4491C6.39843 19.5038 6.33674 19.5757 6.27848 19.6714V19.6783C6.27848 19.6783 6.27505 19.8288 6.27505 19.8527C6.25106 19.8732 5.83294 20.205 5.83294 20.205L5.20919 20.6359C5.05154 20.742 4.88704 20.8104 4.7191 20.848C4.70197 20.8275 4.65741 20.7762 4.65741 20.7762C4.65741 20.7762 4.64028 20.7625 4.63 20.7488C4.6437 20.7077 4.68826 20.6496 4.81164 20.5641L5.53478 20.3144C5.69243 20.2289 5.7644 20.1161 5.75754 19.9758C5.74384 19.798 5.63759 19.7022 5.45252 19.7022L5.22976 19.709L2.36119 20.8104L1.85396 21.0019L1.41528 21.2242L1.00059 21.4123L0.59961 21.6996C0.476231 21.8193 0.417969 22.0006 0.417969 22.24C0.417969 22.3939 0.462522 22.5136 0.555057 22.5889C0.671581 22.7154 0.860077 22.8214 1.12054 22.8967L1.74429 23.0848C2.0973 23.0848 2.39204 23.0437 2.63537 22.9548L3.56756 22.6299L4.26671 22.3529C4.61286 22.1169 5.09609 21.8604 5.70271 21.5799L7.00847 20.9745C7.37861 20.742 7.64593 20.5607 7.80015 20.4341L8.13945 20.1263C8.21485 20.0579 8.30053 19.9929 8.39649 19.9348C8.53015 19.9143 8.66381 19.9006 8.79747 19.8903C8.91742 19.8903 9.07507 19.8664 9.26014 19.839C9.59258 19.7877 10.0073 19.7262 10.3706 19.798H10.3877L10.4014 19.7809L10.4699 19.6988C10.5556 19.6235 10.6036 19.5996 10.631 19.5893L11.032 19.6201L11.3542 19.7022H11.3679L11.4844 19.6441L11.6386 19.5483C11.7997 19.4115 11.8785 19.2986 11.8854 19.2029C11.8888 19.155 11.8751 19.1139 11.8442 19.0797H11.8374L11.8305 19.0729C11.0389 18.7617 10.3808 18.5462 9.8599 18.4196C9.80507 18.3854 9.73309 18.3615 9.63028 18.3547C9.68169 18.1494 9.7091 17.9305 9.7091 17.698C9.7091 17.1576 9.48634 16.5556 9.04765 15.9024L7.76246 14.4077C7.35805 13.9392 7.00847 13.4501 6.72744 12.9507C6.56636 12.6805 6.46697 12.489 6.41899 12.3761C6.28191 12.0444 6.20993 11.7126 6.20993 11.3946C6.38815 10.8542 6.76857 10.3172 7.33406 9.811C7.95781 9.25009 8.60897 8.85677 9.27385 8.63445L9.33897 8.61393C9.33897 8.61393 9.37667 8.63445 9.42122 8.66182C9.40066 8.7952 9.29784 8.91149 9.10592 9.01068L8.4479 9.34927C8.23541 9.5066 8.11203 9.64683 8.06062 9.7768V9.87599C8.06062 10.0538 8.16344 10.1667 8.3725 10.2112C8.38621 10.2112 8.62611 10.1701 8.62611 10.1701C9.93187 9.74944 11.3782 9.01752 12.9307 7.99146C12.9718 7.97778 13.0095 7.95383 13.0369 7.92305C13.0609 7.88885 13.1089 7.79309 13.1671 7.66312C13.294 7.37582 13.3796 7.16035 13.4242 7.02696C13.4379 6.95172 13.4482 6.87305 13.4482 6.78413C13.4482 6.28478 13.174 6.03168 12.6291 6.03168L12.6222 6.02142Z" fill="#312F30"/>
<path d="M3.85477 6.8252C3.85477 6.8252 4.11524 7.57765 4.86237 7.32797C5.57522 7.08856 7.01465 6.84914 7.02836 6.84572H7.03521L8.00853 5.87439C8.01539 5.86755 8.73853 4.42081 8.73853 4.42081V4.41396V3.18611L7.9914 2.69019H7.00779L5.79456 3.41869L4.57791 4.14719C4.57791 4.14719 4.34486 4.84149 4.34143 4.86885C4.27289 4.90305 3.57031 5.28611 3.57031 5.86413C3.57031 5.93937 3.58402 6.02146 3.60801 6.10354L3.85134 6.8252H3.85477Z" fill="#312F30"/>
</svg>
