<svg width="28" height="28" viewBox="0 0 28 28" fill="none" xmlns="http://www.w3.org/2000/svg">
<path d="M3.5 3.35H3.35V3.5V24.5V24.65H3.5H6.85V26.1H1.9V1.9H26.1V12.1H24.65V3.5V3.35H24.5H3.5ZM25.9077 19.3262L25.8683 19.4155L25.934 19.4877L27.85 21.5913V24.35H26.4V22.2168V22.1592L26.3614 22.1163L24.9805 20.5851L24.9006 20.4965L24.7963 20.5544C24.4882 20.7256 24.1597 20.8194 23.8091 20.8365L23.7455 20.8396L23.7036 20.8875L22.6372 22.1043L22.6 22.1467V22.2031V24.35H21.15V21.6034L22.0971 20.5248L22.2157 20.3897L22.0616 20.2972C22.0229 20.274 21.9972 20.2538 21.9811 20.2377L21.9809 20.2375L21.9807 20.2374L21.9806 20.2372L21.9804 20.237L21.9803 20.2369L21.9801 20.2367L21.9799 20.2366L21.9798 20.2364L21.9796 20.2362L21.9795 20.2361L21.9793 20.2359L21.9791 20.2357L21.979 20.2356L21.9788 20.2354L21.9786 20.2353L21.9785 20.2351L21.9783 20.2349L21.9781 20.2348L21.978 20.2346L21.9778 20.2344L21.9777 20.2343L21.9775 20.2341L21.9773 20.2339L21.9772 20.2338L21.977 20.2336L21.9768 20.2334L21.9767 20.2333L21.9765 20.2331L21.9763 20.233L21.9762 20.2328L21.976 20.2326L21.9758 20.2325L21.9757 20.2323L21.9755 20.2321L21.9753 20.2319L21.9752 20.2318L21.975 20.2316L21.9748 20.2314L21.9747 20.2313L21.9745 20.2311L21.9743 20.2309L21.9742 20.2308L21.974 20.2306L21.9738 20.2304L21.9736 20.2303L21.9735 20.2301L21.9733 20.2299L21.9731 20.2298L21.973 20.2296L21.9728 20.2294L21.9726 20.2292L21.9725 20.2291L21.9723 20.2289L21.9721 20.2287L21.9719 20.2286L21.9718 20.2284L21.9716 20.2282L21.9714 20.228L21.9713 20.2279L21.9711 20.2277L21.9709 20.2275L21.9707 20.2274L21.9706 20.2272L21.9704 20.227L21.9702 20.2268L21.97 20.2267L21.9699 20.2265L21.9697 20.2263L21.9695 20.2261L21.9693 20.226L21.9692 20.2258L21.969 20.2256L21.9688 20.2254L21.9686 20.2253L21.9685 20.2251L21.9683 20.2249L21.9681 20.2247L21.9679 20.2246L21.9678 20.2244L21.9676 20.2242L21.9674 20.224L21.9672 20.2238L21.967 20.2237L21.9669 20.2235L21.9667 20.2233L21.9665 20.2231L21.9663 20.223L21.9662 20.2228L21.966 20.2226L21.9658 20.2224L21.9656 20.2222L21.9654 20.2221L21.9653 20.2219L21.9651 20.2217L21.9649 20.2215L21.9647 20.2213L21.9645 20.2212L21.9644 20.221L21.9642 20.2208L21.964 20.2206L21.9638 20.2204L21.9636 20.2203L21.9635 20.2201L21.9633 20.2199L21.9631 20.2197L21.9629 20.2195L21.9627 20.2193L21.9625 20.2192L21.9624 20.219L21.9622 20.2188L21.962 20.2186L21.9618 20.2184L21.9616 20.2182L21.9614 20.2181L21.9613 20.2179L21.9611 20.2177L21.9609 20.2175L21.9607 20.2173L21.9605 20.2171L21.9603 20.217L21.9602 20.2168L21.96 20.2166L21.9598 20.2164L21.9596 20.2162L21.9594 20.216L21.9592 20.2158L21.959 20.2157L21.9588 20.2155L21.9587 20.2153L21.9585 20.2151L21.9583 20.2149L21.9581 20.2147L21.9579 20.2145L21.9577 20.2143L21.9575 20.2142L21.9573 20.214L21.9572 20.2138L21.957 20.2136L21.9568 20.2134L21.9566 20.2132L21.9564 20.213L21.9562 20.2128L21.956 20.2126L21.9558 20.2125L21.9556 20.2123L21.9555 20.2121L21.9553 20.2119L21.9551 20.2117L21.9549 20.2115L21.9547 20.2113L21.9545 20.2111L21.9543 20.2109L21.9541 20.2107L21.9539 20.2105L21.9537 20.2103L21.9535 20.2102L21.9533 20.21L21.9531 20.2098L21.953 20.2096L21.9528 20.2094L21.9526 20.2092L21.9524 20.209L21.9522 20.2088L21.952 20.2086L21.9518 20.2084L21.9516 20.2082L21.9514 20.208L21.9512 20.2078L21.951 20.2076L21.9508 20.2074L21.9506 20.2072L21.9504 20.207L21.9502 20.2068L21.95 20.2066L21.9498 20.2065L21.9496 20.2063L21.9494 20.2061L21.9492 20.2059L21.949 20.2057L21.9488 20.2055L21.9487 20.2053L21.9485 20.2051L21.9483 20.2049L21.9481 20.2047L21.9479 20.2045L21.9477 20.2043L21.9475 20.2041L21.9473 20.2039L21.9471 20.2037L21.9469 20.2035L21.9467 20.2033L21.9465 20.2031L21.9463 20.2029L21.9461 20.2027L21.9459 20.2025L21.9457 20.2023L21.9455 20.2021L21.9453 20.2019L21.9451 20.2017L21.9449 20.2015L21.9446 20.2013L21.9444 20.2011L21.9442 20.2009L21.944 20.2007L21.9438 20.2005L21.9436 20.2003L21.9434 20.2001L21.9432 20.1998L21.943 20.1996L21.9428 20.1994L21.9426 20.1992L21.9424 20.199L21.9422 20.1988L21.942 20.1986L21.9418 20.1984L21.9416 20.1982L21.9414 20.198L21.9412 20.1978L21.941 20.1976L21.9408 20.1974L21.9406 20.1972L21.9404 20.197L21.9402 20.1968L21.9399 20.1966L21.9397 20.1964L21.9395 20.1961L21.9393 20.1959L21.9391 20.1957L21.9389 20.1955L21.9387 20.1953L21.9385 20.1951L21.9383 20.1949L21.9381 20.1947L21.9379 20.1945L21.9377 20.1943L21.9374 20.1941L21.9372 20.1939L21.937 20.1936L21.9368 20.1934L21.9366 20.1932L21.9364 20.193L21.9362 20.1928L21.936 20.1926L21.9358 20.1924L21.9356 20.1922L21.9353 20.192L21.9351 20.1917L21.9349 20.1915L21.9347 20.1913L21.9345 20.1911L21.9343 20.1909L21.9341 20.1907L21.9339 20.1905L21.9336 20.1903L21.9334 20.19L21.9332 20.1898L21.933 20.1896L21.9328 20.1894L21.9326 20.1892L21.9324 20.189L21.9321 20.1888L21.9319 20.1885L21.9317 20.1883L21.9315 20.1881L21.9313 20.1879L21.9311 20.1877L21.9309 20.1875L21.9306 20.1873L21.9304 20.187L21.9302 20.1868L21.93 20.1866L21.9298 20.1864L21.9296 20.1862L21.9293 20.186L21.9291 20.1857L21.9289 20.1855L21.9287 20.1853L21.9285 20.1851L21.9282 20.1849L21.928 20.1846L21.9278 20.1844L21.9276 20.1842L21.9274 20.184L21.9272 20.1838L21.9269 20.1835L21.9267 20.1833L21.9265 20.1831L21.9263 20.1829L21.9261 20.1827L21.9258 20.1824L21.9256 20.1822L21.9254 20.182L21.9252 20.1818L21.9249 20.1816L21.9247 20.1813L21.9245 20.1811L21.9243 20.1809L21.9241 20.1807L21.9238 20.1805L21.9236 20.1802L21.9234 20.18L21.9232 20.1798L21.9229 20.1796L21.9227 20.1793L21.9225 20.1791L21.9223 20.1789L21.922 20.1787L21.9218 20.1784L21.9216 20.1782L21.9214 20.178L21.9212 20.1778L21.9209 20.1775L21.9207 20.1773L21.9205 20.1771L21.9202 20.1769L21.92 20.1766L21.9198 20.1764L21.9196 20.1762L21.9193 20.176L21.9191 20.1757L21.9189 20.1755L21.9187 20.1753L21.9184 20.1751L21.9182 20.1748L21.918 20.1746L21.9177 20.1744L21.9175 20.1741L21.9173 20.1739L21.9171 20.1737L21.9168 20.1735L21.9166 20.1732L21.9164 20.173L21.9161 20.1728L21.9159 20.1725L21.9157 20.1723L21.9155 20.1721L21.9152 20.1718L21.915 20.1716L21.9148 20.1714L21.9145 20.1712L21.9143 20.1709L21.9141 20.1707L21.9138 20.1705L21.9136 20.1702L21.9134 20.17L21.9131 20.1698L21.9129 20.1695L21.9127 20.1693L21.9124 20.1691L21.9122 20.1688L21.912 20.1686L21.9117 20.1684L21.9115 20.1681L21.9113 20.1679L21.911 20.1677L21.9108 20.1674L21.9106 20.1672L21.9103 20.167L21.9101 20.1667L21.9099 20.1665L21.9096 20.1663L21.9094 20.166L21.9092 20.1658L21.9089 20.1655L21.9087 20.1653L21.9085 20.1651L21.9082 20.1648L21.908 20.1646L21.9077 20.1644L21.9075 20.1641L21.9073 20.1639L21.907 20.1636L21.9068 20.1634L21.9066 20.1632L21.9063 20.1629L21.9061 20.1627L21.9058 20.1625L21.9056 20.1622L21.9054 20.162L21.9051 20.1617L21.9049 20.1615L21.9046 20.1613L21.9044 20.161L21.9042 20.1608L21.9039 20.1605L21.9037 20.1603L21.9034 20.1601L21.9032 20.1598L21.903 20.1596L21.9027 20.1593L21.9025 20.1591L21.9022 20.1588L21.902 20.1586L21.9017 20.1584L21.9015 20.1581L21.9013 20.1579L21.901 20.1576L21.9008 20.1574L21.9005 20.1572L21.9003 20.1569L21.9 20.1567L21.8998 20.1564L21.8996 20.1562L21.8993 20.1559L21.8991 20.1557L21.8988 20.1554L21.8986 20.1552L21.8983 20.155L21.8981 20.1547L21.8978 20.1545L21.8976 20.1542L21.8974 20.154L21.8971 20.1537L21.8969 20.1535L21.8966 20.1532L21.8964 20.153L21.8961 20.1527L21.8959 20.1525L21.8956 20.1522L21.8954 20.152L21.8951 20.1517L21.8949 20.1515L21.8946 20.1512L21.8944 20.151L21.8941 20.1508L21.8939 20.1505L21.8936 20.1503L21.8934 20.15L21.8931 20.1498L21.8929 20.1495L21.8926 20.1493L21.8924 20.149L21.8921 20.1488L21.8919 20.1485L21.8916 20.1483L21.8914 20.148L21.8911 20.1477L21.8909 20.1475L21.8906 20.1472L21.8904 20.147L21.8901 20.1467L21.8899 20.1465L21.8896 20.1462L21.8894 20.146L21.8891 20.1457L21.8889 20.1455L21.8886 20.1452L21.8884 20.145L21.8881 20.1447L21.8878 20.1445L21.8876 20.1442L21.8873 20.144L21.8871 20.1437L21.8868 20.1434L21.8866 20.1432L21.8863 20.1429L21.8861 20.1427L21.8858 20.1424L21.8856 20.1422L21.8853 20.1419L21.885 20.1417L21.8848 20.1414L21.8845 20.1411L21.8843 20.1409L21.884 20.1406L21.8838 20.1404L21.8835 20.1401L21.8832 20.1399L21.883 20.1396L21.8827 20.1393L21.8825 20.1391L21.8822 20.1388L21.8819 20.1386L21.8817 20.1383L21.8814 20.138L21.8812 20.1378L21.8809 20.1375L21.8806 20.1373L21.8804 20.137L21.8801 20.1367L21.8799 20.1365L21.8796 20.1362L21.8793 20.136L21.8791 20.1357L21.8788 20.1354L21.8786 20.1352L21.8783 20.1349L21.878 20.1347L21.8778 20.1344L21.8775 20.1341L21.8773 20.1339L21.877 20.1336L21.8767 20.1333L21.8765 20.1331L21.8762 20.1328L21.8759 20.1326L21.8757 20.1323L21.8754 20.132L21.8751 20.1318L21.8749 20.1315L21.8746 20.1312L21.8744 20.131L21.8741 20.1307L21.8738 20.1304L21.8736 20.1302L21.8733 20.1299L21.873 20.1296L21.8728 20.1294L21.8725 20.1291L21.8722 20.1288L21.872 20.1286L21.8719 20.1285L21.8717 20.1283L18.4813 16.7242L18.3749 16.6175L18.2687 16.7243L15.6437 19.363L15.6 19.4068V19.4688V26.25V26.4H15.75H17.35V27.85H8.9V26.4H10.5H10.65V26.25V18.375C10.65 18.0476 10.7102 17.7338 10.8307 17.4327C10.9504 17.1335 11.1301 16.8633 11.3717 16.6217L16.6217 11.3717C16.8536 11.1398 17.1191 10.9643 17.419 10.8443C17.7203 10.7238 18.0393 10.6589 18.3769 10.65C18.7037 10.6502 19.0168 10.7105 19.3173 10.8307C19.6165 10.9504 19.8867 11.1301 20.1283 11.3717L25.3783 16.6217C25.6102 16.8536 25.7857 17.1191 25.9057 17.419C26.0262 17.7203 26.0911 18.0393 26.1 18.3769C26.0998 18.7215 26.0351 19.0373 25.9077 19.3262ZM14.1537 15.9037L14.0034 16.054L14.1954 16.1452C14.7202 16.3947 15.1053 16.7798 15.3548 17.3046L15.446 17.4966L15.5963 17.3463L19.0963 13.8463C19.2966 13.646 19.4 13.4032 19.4 13.125C19.4 12.8468 19.2966 12.604 19.0963 12.4037C18.896 12.2034 18.6532 12.1 18.375 12.1C18.0968 12.1 17.854 12.2034 17.6537 12.4037L14.1537 15.9037ZM12.1 26.25V26.4H12.25H14H14.15V26.25V18.375C14.15 18.0968 14.0466 17.854 13.8463 17.6537C13.646 17.4534 13.4032 17.35 13.125 17.35C12.8468 17.35 12.604 17.4534 12.4037 17.6537C12.2034 17.854 12.1 18.0968 12.1 18.375V26.25ZM20.8463 14.1537L20.6928 14.0002L20.6035 14.198C20.4829 14.4651 20.3295 14.6856 20.1445 14.8622C19.943 15.0545 19.728 15.265 19.4994 15.4935L19.3931 15.5998L19.4996 15.7059L22.9037 19.0963C22.9038 19.0964 22.9038 19.0964 22.9039 19.0965C23.1041 19.2966 23.3469 19.4 23.625 19.4C23.9032 19.4 24.146 19.2966 24.3463 19.0963C24.5466 18.896 24.65 18.6532 24.65 18.375C24.65 18.0968 24.5466 17.854 24.3463 17.6537L20.8463 14.1537Z" fill="#798A89" stroke="#F7F6F4" stroke-width="0.3"/>
</svg>
