<svg width="28" height="28" viewBox="0 0 28 28" fill="none" xmlns="http://www.w3.org/2000/svg">
<path d="M24.9385 14.0997V10.8542C24.9385 8.64282 24.9385 7.53712 24.2719 6.85004C23.6053 6.16296 22.5337 6.16296 20.3883 6.16296H18.0233C16.9802 6.16296 16.9711 6.16069 16.0326 5.68974L12.2434 3.79003C10.6611 2.99602 9.86938 2.59902 9.02645 2.62632C8.18353 2.65362 7.42023 3.10181 5.88795 3.99707L4.49218 4.81497C3.36714 5.47247 2.80519 5.80122 2.49691 6.34838C2.1875 6.89554 2.1875 7.56215 2.1875 8.89422V18.2631C2.1875 20.0138 2.1875 20.8897 2.57654 21.3766C2.8359 21.7008 3.19878 21.918 3.60034 21.9908C4.20324 22.0989 4.94265 21.6678 6.41919 20.8032C7.42251 20.2163 8.38715 19.6065 9.58727 19.7715C10.5929 19.9103 11.5268 20.5462 12.4255 20.9966M9.0128 2.62518V19.7271M16.9757 6.04579V12.8859" stroke="#798A89" stroke-width="1.5" stroke-linecap="round" stroke-linejoin="round"/>
<path d="M22.7847 23.2976L24.8834 25.3713M23.9927 20.4118C23.9929 21.4859 23.5663 22.5161 22.8069 23.2758C22.4308 23.6519 21.9844 23.9503 21.4931 24.1539C21.0017 24.3575 20.4751 24.4623 19.9432 24.4624C18.8691 24.4626 17.8389 24.036 17.0792 23.2766C16.3196 22.5172 15.8927 21.4871 15.8926 20.4129C15.8926 19.3388 16.3193 18.3086 17.0788 17.5491C17.8384 16.7896 18.8685 16.3629 19.9426 16.3629C21.0168 16.3629 22.0469 16.7896 22.8065 17.5491C23.566 18.3086 23.9927 19.3376 23.9927 20.4118Z" stroke="#798A89" stroke-width="1.5" stroke-linecap="round" stroke-linejoin="round"/>
</svg>
