<svg width="24" height="24" viewBox="0 0 24 24" fill="none" xmlns="http://www.w3.org/2000/svg">
<path d="M0.67393 19C0.482534 19 0.322588 18.9343 0.194092 18.803C0.0646974 18.6716 0 18.5083 0 18.3131C0 18.1179 0.0646974 17.9555 0.194092 17.8259C0.323487 17.6964 0.483433 17.6307 0.67393 17.6289H12.2089C12.3994 17.6289 12.5594 17.695 12.6888 17.8273C12.8182 17.9596 12.8828 18.122 12.8828 18.3145C12.8828 18.5069 12.8182 18.6693 12.6888 18.8016C12.5594 18.9339 12.3994 18.9995 12.2089 18.9986L0.67393 19ZM0.67393 12.4469C0.482534 12.4469 0.322588 12.3812 0.194092 12.2499C0.0646974 12.1185 0 11.9561 0 11.7627C0 11.5684 0.0646974 11.4056 0.194092 11.2742C0.323487 11.1429 0.483433 11.0776 0.67393 11.0785H5.34022C5.53072 11.0785 5.69067 11.1442 5.82006 11.2756C5.94946 11.407 6.01415 11.5698 6.01415 11.7641C6.01415 11.9584 5.94946 12.1208 5.82006 12.2512C5.69067 12.3817 5.53072 12.4469 5.34022 12.4469H0.67393ZM0.67393 5.89518C0.482534 5.89518 0.322588 5.8295 0.194092 5.69814C0.0646974 5.56678 0 5.40394 0 5.20963C0 5.01533 0.0646974 4.85295 0.194092 4.7225C0.323487 4.59205 0.483433 4.52682 0.67393 4.52682H5.34022C5.53072 4.52682 5.69067 4.5925 5.82006 4.72387C5.94946 4.85523 6.01415 5.01761 6.01415 5.211C6.01415 5.4044 5.94946 5.56678 5.82006 5.69814C5.69067 5.8295 5.53072 5.89518 5.34022 5.89518H0.67393ZM14.7227 14.9729C13.2095 14.9729 11.92 14.442 10.8543 13.3801C9.78861 12.3183 9.25486 11.0206 9.25306 9.48714C9.25126 7.95366 9.78502 6.65599 10.8543 5.59414C11.9236 4.53229 13.2153 4.00091 14.7294 4C16.2435 3.99909 17.5325 4.53047 18.5964 5.59414C19.6603 6.65599 20.1923 7.9491 20.1923 9.47345C20.1923 10.0819 20.0926 10.6762 19.8931 11.2564C19.6927 11.8366 19.4016 12.3653 19.0197 12.8424L23.7843 17.6002C23.9281 17.7224 24 17.8775 24 18.0654C24 18.2533 23.9281 18.4207 23.7843 18.5676C23.6639 18.6953 23.5112 18.7592 23.3261 18.7592C23.1392 18.7592 22.9738 18.6953 22.8301 18.5676L18.0667 13.8098C17.5788 14.1802 17.0495 14.4666 16.4789 14.6691C15.9074 14.8716 15.322 14.9729 14.7227 14.9729ZM14.7227 13.6045C15.8675 13.6045 16.8406 13.2054 17.6421 12.4072C18.4437 11.609 18.8444 10.6357 18.8444 9.48714C18.8444 8.33863 18.4437 7.36481 17.6421 6.56568C16.8406 5.76656 15.8675 5.36745 14.7227 5.36836C13.5779 5.36928 12.6047 5.76838 11.8032 6.56568C11.0017 7.36298 10.6009 8.3368 10.6009 9.48714C10.6009 10.6375 11.0017 11.6108 11.8032 12.4072C12.6047 13.2036 13.5779 13.6027 14.7227 13.6045Z" fill="#F0ECE3"/>
</svg>
