<svg width="24" height="24" viewBox="0 0 24 24" fill="none" xmlns="http://www.w3.org/2000/svg">
<path d="M15.375 5.99999V21.75M8.625 2.24999V18M14.6845 5.84249L9.31547 2.40749C9.1019 2.30081 8.86595 2.24664 8.62723 2.2495C8.38852 2.25235 8.15393 2.31214 7.94297 2.4239L2.64891 5.97609C2.52846 6.03989 2.42769 6.13531 2.3574 6.25209C2.28712 6.36887 2.24999 6.5026 2.25 6.6389V20.5045C2.24999 20.6339 2.28343 20.761 2.34707 20.8736C2.41071 20.9862 2.50239 21.0805 2.6132 21.1472C2.72402 21.2139 2.8502 21.2508 2.97949 21.2543C3.10879 21.2578 3.2368 21.2279 3.35109 21.1673L7.93641 18.1772C8.14909 18.0645 8.38576 18.0047 8.62644 18.0027C8.86712 18.0007 9.10473 18.0567 9.31922 18.1659L14.5627 21.5878C14.7753 21.6961 15.0107 21.7522 15.2493 21.7513C15.4879 21.7504 15.7229 21.6926 15.9347 21.5827L21.3455 18.023C21.4674 17.9597 21.5696 17.8642 21.6409 17.7468C21.7123 17.6294 21.75 17.4947 21.75 17.3573V3.49546C21.75 3.36612 21.7166 3.23897 21.6529 3.12637C21.5893 3.01377 21.4976 2.91954 21.3868 2.85283C21.276 2.78613 21.1498 2.74921 21.0205 2.74568C20.8912 2.74214 20.7632 2.7721 20.6489 2.83265L16.0552 5.82609C15.8444 5.93753 15.6102 5.99715 15.3718 6.00001C15.1335 6.00286 14.8979 5.94886 14.6845 5.84249Z" stroke="white" stroke-linecap="round" stroke-linejoin="round"/>
</svg>
