<svg width="20" height="20" viewBox="0 0 20 20" fill="none" xmlns="http://www.w3.org/2000/svg">
<g clip-path="url(#clip0_121_1092)">
<path fill-rule="evenodd" clip-rule="evenodd" d="M9.10035 2.39C9.19206 2.23263 9.32342 2.10206 9.48134 2.01131C9.63926 1.92056 9.81822 1.8728 10.0004 1.8728C10.1825 1.8728 10.3614 1.92056 10.5194 2.01131C10.6773 2.10206 10.8086 2.23263 10.9004 2.39L13.2295 6.38833L17.7529 7.36833C17.9308 7.407 18.0955 7.49162 18.2305 7.61378C18.3655 7.73593 18.4662 7.89134 18.5224 8.06452C18.5786 8.2377 18.5885 8.42259 18.551 8.60077C18.5135 8.77894 18.43 8.94418 18.3087 9.08L15.2254 12.5308L15.692 17.135C15.7104 17.3163 15.681 17.4992 15.6065 17.6656C15.5321 17.8319 15.4154 17.9758 15.268 18.083C15.1205 18.1901 14.9476 18.2566 14.7664 18.276C14.5852 18.2954 14.4021 18.2669 14.2354 18.1933L10.0004 16.3267L5.76535 18.1933C5.59862 18.2669 5.41551 18.2954 5.23432 18.276C5.05312 18.2566 4.88017 18.1901 4.73275 18.083C4.58532 17.9758 4.46857 17.8319 4.39416 17.6656C4.31975 17.4992 4.29028 17.3163 4.30869 17.135L4.77535 12.5308L1.69202 9.08083C1.57054 8.94502 1.48682 8.77972 1.4492 8.60143C1.41158 8.42314 1.42139 8.23811 1.47764 8.06479C1.53389 7.89148 1.63462 7.73596 1.76978 7.61375C1.90493 7.49154 2.06977 7.40692 2.24785 7.36833L6.77119 6.38833L9.10035 2.39ZM10.0004 4.15583L8.07285 7.46583C7.99997 7.59077 7.90187 7.69915 7.78479 7.78409C7.66772 7.86903 7.53424 7.92865 7.39285 7.95916L3.64952 8.77L6.20119 11.6258C6.39619 11.8442 6.49035 12.1342 6.46119 12.425L6.07535 16.2358L9.58035 14.6908C9.7127 14.6325 9.85573 14.6024 10.0004 14.6024C10.145 14.6024 10.288 14.6325 10.4204 14.6908L13.9254 16.2358L13.5395 12.425C13.5249 12.2811 13.5403 12.1357 13.585 11.9981C13.6296 11.8605 13.7024 11.7337 13.7987 11.6258L16.3512 8.77L12.6079 7.95916C12.4665 7.92865 12.333 7.86903 12.2159 7.78409C12.0988 7.69915 12.0007 7.59077 11.9279 7.46583L10.0004 4.15583Z" fill="#373737"/>
<path d="M10.0004 4.15583L8.07285 7.46583C7.99997 7.59077 7.90187 7.69915 7.78479 7.78409C7.66772 7.86903 7.53424 7.92865 7.39285 7.95916L3.64952 8.77L6.20119 11.6258C6.39619 11.8442 6.49035 12.1342 6.46119 12.425L6.07535 16.2358L9.58035 14.6908C9.7127 14.6325 9.85573 14.6024 10.0004 14.6024C10.145 14.6024 10.288 14.6325 10.4204 14.6908L13.9254 16.2358L13.5395 12.425C13.5249 12.2811 13.5403 12.1357 13.585 11.9981C13.6296 11.8605 13.7024 11.7337 13.7987 11.6258L16.3512 8.77L12.6079 7.95916C12.4665 7.92865 12.333 7.86903 12.2159 7.78409C12.0988 7.69915 12.0007 7.59077 11.9279 7.46583L10.0004 4.15583Z" fill="white"/>
</g>
<defs>
<clipPath id="clip0_121_1092">
<rect width="20" height="20" fill="white"/>
</clipPath>
</defs>
</svg>
