<?xml version="1.0" encoding="UTF-8"?>
<svg id="_레이어_2" data-name="레이어 2" xmlns="http://www.w3.org/2000/svg" xmlns:xlink="http://www.w3.org/1999/xlink" viewBox="0 0 20 20">
  <defs>
    <style>
      .cls-1 {
        clip-path: url(#clippath);
      }

      .cls-2 {
        fill: none;
      }

      .cls-3, .cls-4 {
        fill: #f2c300;
      }

      .cls-4 {
        fill-rule: evenodd;
      }
    </style>
    <clipPath id="clippath">
      <rect class="cls-2" width="20" height="20"/>
    </clipPath>
  </defs>
  <g id="_레이어_1-2" data-name="레이어 1">
    <g class="cls-1">
      <g>
        <path class="cls-4" d="M9.1,2.39c.09-.16,.22-.29,.38-.38,.16-.09,.34-.14,.52-.14s.36,.05,.52,.14c.16,.09,.29,.22,.38,.38l2.33,4,4.52,.98c.18,.04,.34,.12,.48,.25,.14,.12,.24,.28,.29,.45,.06,.17,.07,.36,.03,.54-.04,.18-.12,.34-.24,.48l-3.08,3.45,.47,4.6c.02,.18-.01,.36-.09,.53-.07,.17-.19,.31-.34,.42-.15,.11-.32,.17-.5,.19-.18,.02-.36,0-.53-.08l-4.24-1.87-4.24,1.87c-.17,.07-.35,.1-.53,.08-.18-.02-.35-.09-.5-.19-.15-.11-.26-.25-.34-.42-.07-.17-.1-.35-.09-.53l.47-4.6-3.08-3.45c-.12-.14-.21-.3-.24-.48-.04-.18-.03-.36,.03-.54,.06-.17,.16-.33,.29-.45,.14-.12,.3-.21,.48-.25l4.52-.98,2.33-4Zm.9,1.77l-1.93,3.31c-.07,.12-.17,.23-.29,.32-.12,.08-.25,.14-.39,.18l-3.74,.81,2.55,2.86c.2,.22,.29,.51,.26,.8l-.39,3.81,3.51-1.55c.13-.06,.28-.09,.42-.09s.29,.03,.42,.09l3.51,1.55-.39-3.81c-.01-.14,0-.29,.05-.43,.04-.14,.12-.26,.21-.37l2.55-2.86-3.74-.81c-.14-.03-.27-.09-.39-.18-.12-.08-.22-.19-.29-.32l-1.93-3.31Z"/>
        <path class="cls-3" d="M10.14,3.8l-2.09,3.58c-.08,.14-.18,.25-.31,.34-.13,.09-.27,.16-.42,.19l-4.05,.88,2.76,3.09c.21,.24,.31,.55,.28,.86l-.42,4.12,3.79-1.67c.14-.06,.3-.1,.45-.1s.31,.03,.45,.1l3.79,1.67-.42-4.12c-.02-.16,0-.31,.05-.46,.05-.15,.13-.29,.23-.4l2.76-3.09-4.05-.88c-.15-.03-.3-.1-.42-.19-.13-.09-.23-.21-.31-.34l-2.08-3.58Z"/>
      </g>
    </g>
  </g>
</svg>