<svg width="193" height="32" viewBox="0 0 193 32" fill="none" xmlns="http://www.w3.org/2000/svg">
<g clip-path="url(#clip0_121_823)">
<path d="M39.1521 10.9031V10.8927C39.4582 9.09109 39.6034 7.89517 39.6034 7.24285C39.6034 6.23848 39.4582 5.69488 39.1729 5.57581H38.8668H38.8564L38.1249 5.85019L37.7203 6.01586C37.5491 6.12976 37.3987 6.24884 37.2638 6.37826L36.5115 7.06683L35.1264 8.72869L35.116 8.74422V9.54668C35.116 11.602 34.9708 13.1759 34.6855 14.2113V14.817C34.6855 15.0345 34.5973 15.3503 34.4313 15.78C34.4313 15.78 34.1771 16.4012 34.1356 16.51C33.6738 16.6549 33.264 16.7533 32.9164 16.8051C32.3665 16.9034 31.8841 16.9345 31.4846 16.9034L29.9127 16.7585L27.931 16.9966C27.9414 16.9966 26.909 16.9034 26.909 16.9034C26.2709 16.9034 25.5343 17.0277 24.7094 17.2814C24.284 17.1571 24.2114 17.0639 24.201 17.0225C24.2218 16.9966 24.2736 16.9397 24.2736 16.9397L24.5641 15.2416L24.9999 13.1086C25.2541 11.9903 25.4409 11.2396 25.5446 10.8876C25.7573 9.94015 25.9285 9.09627 26.0427 8.38182C26.2242 7.96247 26.3176 7.62596 26.3176 7.3671C26.3176 6.87009 26.1568 6.50769 25.8455 6.27472C25.5394 6.0521 25.1037 5.93303 24.5486 5.93303C24.0402 5.93303 23.6511 6.01069 23.3969 6.166L22.1882 7.11342L22.1778 7.12378V7.13413C22.0637 7.40852 22.0066 7.58972 21.9962 7.70879C21.9547 7.84858 21.934 8.16438 21.934 8.64586L21.7731 10.1472C21.4515 13.1293 21.1039 15.6143 20.7304 17.535C20.5903 17.9596 20.3465 18.4203 19.9989 18.8915C19.5891 19.4454 19.3297 19.844 19.2363 20.0718V20.0926V20.1081C19.3764 20.6827 19.781 21.5214 20.4814 22.6604C20.4243 22.7433 20.388 22.8727 20.388 23.0901C20.388 23.0849 20.3206 23.5612 20.3206 23.5612V23.5768V23.5871C20.3413 23.6493 20.3673 23.8097 20.3673 24.1929C20.3673 24.6795 20.4399 25.3629 20.5903 26.2378L20.7667 27.7237C20.9275 28.8627 21.0157 29.0749 21.0728 29.1319C21.161 29.2872 21.3841 29.37 21.7316 29.37C22.6602 29.37 23.511 28.9558 24.2477 28.1378C24.6783 27.6667 25.1919 26.8487 25.7936 25.7046H25.7988V25.6839C25.7988 25.513 25.6225 25.425 25.2801 25.425C25.2749 25.425 25.0777 25.4613 25.0777 25.4613L24.9273 25.4975L24.7042 25.8185L24.3878 26.1343C24.3878 26.1343 24.3203 26.1498 24.1958 26.1498C23.7704 26.1498 23.5525 25.425 23.5525 24.0065C23.5525 24.0065 23.8223 21.4645 23.8379 21.2781C23.8638 21.2522 24.4189 20.7293 24.4189 20.7293C24.4189 20.7293 25.1296 20.2582 25.1867 20.2168C25.9493 20.2168 26.6652 20.0667 27.3137 19.7664C27.7235 19.58 28.8648 19.3885 30.6909 19.2124L32.1746 19.0209C32.1746 19.0209 33.347 18.8086 33.6272 18.762C33.622 18.9639 33.6012 19.1917 33.5649 19.4454L33.3574 20.4032L32.7504 23.2299L32.2524 25.2335C32.2524 25.5182 32.1175 26.1498 31.8529 27.1076C31.8529 27.118 31.7233 29.2458 31.7233 29.2458L31.5313 29.7635L31.3653 30.3381L31.5313 31.0422L31.6091 31.6946V31.7204L31.6351 31.7308C31.8114 31.8343 31.9515 31.8861 32.0553 31.8965L32.6778 31.9948H32.6934L33.264 31.6997C33.2692 31.6997 33.6272 31.4564 33.6272 31.4564C33.8139 31.2027 33.9903 30.7316 34.1719 30.0482L34.5143 28.8161C34.8515 27.7754 35.0745 27.0196 35.2042 26.5019L35.9565 24.3741L36.0862 23.5612C36.1277 23.2713 36.1536 23.0228 36.1536 22.8002C36.1536 22.6501 36.2262 22.4585 36.3767 22.2255C36.5323 21.9874 36.6257 21.7958 36.6516 21.6716C36.6516 21.4024 36.7554 20.8847 36.9525 20.1495L37.4038 18.4825C37.5854 18.0269 37.6736 17.5195 37.6736 16.9759C38.1094 16.0647 38.5555 14.4495 38.9913 12.1767L39.0587 11.8402L39.1573 11.4778C39.1573 11.4778 39.0691 11.0636 39.0639 11.0222C39.0847 11.0015 39.1521 10.9031 39.1521 10.9031Z" fill="white"/>
<path d="M18.4785 5.04254C18.0427 5.04254 17.6796 5.08396 17.389 5.16679L17.0518 5.28587L15.6667 5.79323L13.8043 6.48179C11.2467 7.47063 9.0212 8.67173 7.18473 10.0592C5.78923 11.3328 4.80874 12.772 4.26403 14.3304C4.26403 14.8584 4.24328 15.1949 4.20178 15.3399C4.26403 15.9094 4.43004 16.3857 4.6998 16.774C4.94881 17.1416 5.15113 17.3228 5.31714 17.359C5.30677 17.4159 5.2912 17.5195 5.2912 17.5195C5.2912 17.8198 5.41571 18.0993 5.65953 18.3427C6.79565 19.2383 8.16003 20.6672 9.71117 22.5827C10.1418 23.1212 10.3545 23.5923 10.3545 23.9961C10.3545 23.9961 10.3389 24.1566 10.3285 24.2187C10.1314 24.3378 9.94462 24.4724 9.76305 24.6277C9.50366 24.8503 9.34803 25.0626 9.30134 25.2593C9.21833 25.3215 9.16127 25.3681 9.16127 25.3681C9.05751 25.4509 8.96413 25.5596 8.87594 25.7046V25.7149C8.87594 25.7149 8.87075 25.9427 8.87075 25.979C8.83444 26.01 8.20153 26.5122 8.20153 26.5122L7.25736 27.1645C7.01873 27.325 6.76971 27.4286 6.51551 27.4855C6.48958 27.4544 6.42213 27.3768 6.42213 27.3768C6.42213 27.3768 6.3962 27.3561 6.38063 27.3354C6.40138 27.2732 6.46882 27.1852 6.65558 27.0558L7.7502 26.6779C7.98884 26.5484 8.09778 26.3776 8.0874 26.1653C8.06665 25.8961 7.90583 25.7512 7.62569 25.7512L7.28849 25.7615L2.94634 27.4286L2.17855 27.7185L1.51452 28.055L0.886801 28.3397L0.279834 28.7746C0.0930746 28.9558 0.00488281 29.2302 0.00488281 29.5926C0.00488281 29.8256 0.0723236 30.0068 0.212393 30.1207C0.388777 30.3122 0.674103 30.4727 1.06837 30.5866L2.01254 30.8714C2.54688 30.8714 2.99303 30.8092 3.36136 30.6746L4.77243 30.1828L5.83073 29.7635C6.35469 29.4062 7.08617 29.0179 8.0044 28.5934L9.98093 27.6771C10.5412 27.325 10.9459 27.0506 11.1793 26.8591L11.6929 26.3931C11.807 26.2896 11.9367 26.1912 12.082 26.1032C12.2843 26.0721 12.4866 26.0514 12.6889 26.0359C12.8705 26.0359 13.1091 25.9997 13.3893 25.9583C13.8925 25.8806 14.5202 25.7874 15.0701 25.8961H15.0961L15.1168 25.8702L15.2206 25.746C15.3503 25.6321 15.4229 25.5958 15.4644 25.5803L16.0714 25.6269L16.559 25.7512H16.5798L16.7561 25.6632L16.9896 25.5182C17.2334 25.3111 17.3527 25.1403 17.3631 24.9953C17.3683 24.9228 17.3475 24.8607 17.3009 24.8089H17.2905L17.2801 24.7986C16.0817 24.3274 15.0857 24.0013 14.2971 23.8097C14.2141 23.758 14.1052 23.7217 13.9496 23.7114C14.0274 23.4007 14.0689 23.0694 14.0689 22.7174C14.0689 21.8994 13.7317 20.9882 13.0676 19.9993L11.1222 17.7369C10.5101 17.0277 9.98093 16.2873 9.55554 15.5315C9.31171 15.1225 9.16127 14.8325 9.08864 14.6617C8.88113 14.1595 8.77219 13.6573 8.77219 13.1759C9.04195 12.3579 9.61779 11.545 10.4738 10.7788C11.4179 9.92978 12.4036 9.3344 13.41 8.99789L13.5086 8.96683C13.5086 8.96683 13.5657 8.99789 13.6331 9.03931C13.602 9.24121 13.4464 9.41724 13.1558 9.56738L12.1598 10.0799C11.8382 10.3181 11.6514 10.5303 11.5736 10.7271V10.8772C11.5736 11.1464 11.7292 11.3173 12.0457 11.3846C12.0664 11.3846 12.4296 11.3224 12.4296 11.3224C14.4061 10.6856 16.5953 9.57773 18.9454 8.02458C19.0076 8.00387 19.0647 7.96763 19.1062 7.92104C19.1425 7.86927 19.2151 7.72431 19.3033 7.52758C19.4953 7.0927 19.625 6.76653 19.6924 6.56463C19.7132 6.45073 19.7287 6.33165 19.7287 6.19705C19.7287 5.44118 19.3137 5.05807 18.4889 5.05807L18.4785 5.04254Z" fill="white"/>
<path d="M5.20793 6.25918C5.20793 6.25918 5.6022 7.39816 6.73313 7.02022C7.81218 6.65782 9.99104 6.29542 10.0118 6.29024H10.0222L11.4955 4.81993C11.5059 4.80958 12.6005 2.61964 12.6005 2.61964V2.60929V0.750688L11.4695 0H9.98066L8.1442 1.10273L6.30254 2.20547C6.30254 2.20547 5.94978 3.25643 5.94459 3.29785C5.84083 3.34962 4.77734 3.92946 4.77734 4.8044C4.77734 4.9183 4.79809 5.04255 4.83441 5.1668L5.20274 6.25918H5.20793Z" fill="white"/>
<path d="M56.0119 21.6664L54.4348 23.3024L50.0511 19.0364C48.9046 21.0607 47.1979 22.4637 45.6 23.3697L44.0645 21.625C47.5195 19.8596 48.9046 16.9034 48.9046 14.4287V10.0799H51.1924C51.1924 10.0799 51.3117 14.3666 50.9745 16.774L56.0067 21.6664H56.0119ZM60.9402 29.4269H58.6524V17.5091H53.8797V15.3347H58.6524V9.47418H60.9402V29.4321V29.4269Z" fill="white"/>
<path d="M80.7934 19.9942H72.8095V21.1331H76.8715V26.3672H68.8357V27.3354H77.3903V29.4269H66.5479V24.2705H74.5837V23.2247H66.5479V21.128H70.5217V19.989H62.6934V17.8146H80.7934V19.989V19.9942Z" fill="white"/>
<path d="M100.217 21.8838H92.1706V29.4269H89.8828V21.8838H82.1582V19.7094H100.217V21.8838ZM97.9549 16.8671L96.4401 18.5911L91.4287 15.7696C89.7012 17.0173 87.6053 18.0113 85.468 18.529L83.9999 16.6756C87.7558 15.811 90.6298 13.8282 92.0564 12.1922H85.359V10.0799H95.7709C95.5322 11.4829 94.6036 12.948 93.2652 14.263L97.9497 16.8723L97.9549 16.8671Z" fill="white"/>
<path d="M110.384 19.9683H101.752V10.0747H109.394V12.2543H104.04V13.8282H109.394V16.0026H104.04V17.8146H110.384V19.9683ZM117.855 29.4269H115.546V24.431H106.582V22.2359H117.86V29.4321L117.855 29.4269ZM117.855 21.2729H115.567V15.8835H113.658V20.8639H111.37V9.46899H113.658V13.7091H115.567V9.46899H117.855V21.2729Z" fill="white"/>
<path d="M137.242 25.9323H119.354V23.7528H127.183V20.5222H129.471V23.7528H137.237V25.9323H137.242ZM133.953 19.3004H123.048V10.0747H133.953V12.2284H125.336V17.1001H133.953V19.3004Z" fill="white"/>
<path d="M153.578 29.4269H151.29V9.46899H153.578V29.4269Z" fill="white"/>
<path d="M173.515 20.6672H155.436V18.5135H162.423V14.9982H164.711V18.5135H173.515V20.6672ZM169.79 10.0799C169.79 13.59 169.64 15.7075 169.053 17.8146H166.657C167.196 16.0284 167.367 13.6987 167.414 12.275H159.036V10.0799H169.79Z" fill="white"/>
<path d="M192.999 17.8508H189.435V29.4269H187.147V9.46899H189.435V15.6764H192.999V17.8508Z" fill="white"/>
<path d="M149.443 21.6664L147.866 23.3024L143.483 19.0364C142.336 21.0606 140.629 22.4637 139.032 23.3697L137.496 21.625C140.951 19.8595 142.336 16.9034 142.336 14.4287V10.0799H144.624C144.624 10.0799 144.743 14.3666 144.406 16.774L149.438 21.6664H149.443Z" fill="white"/>
<path d="M185.929 21.6664L184.352 23.3024L179.968 19.0364C178.822 21.0606 177.115 22.4637 175.517 23.3697L173.981 21.625C177.436 19.8595 178.822 16.9034 178.822 14.4287V10.0799H181.109C181.109 10.0799 181.229 14.3666 180.892 16.774L185.924 21.6664H185.929Z" fill="white"/>
<path d="M71.7511 8.82703C68.9549 8.82703 66.6826 10.7063 66.6826 13.0309C66.6826 15.3554 68.9497 17.2347 71.7511 17.2347C74.5524 17.2347 76.8195 15.3554 76.8195 13.0309C76.8195 10.7063 74.5524 8.82703 71.7511 8.82703ZM71.7511 15.1328C70.257 15.1328 69.043 14.1906 69.043 13.0257C69.043 11.8608 70.257 10.9186 71.7511 10.9186C73.2451 10.9186 74.4591 11.8608 74.4591 13.0257C74.4591 14.1906 73.2451 15.1328 71.7511 15.1328Z" fill="white"/>
<path d="M164.389 21.5421C161.593 21.5421 159.32 23.4214 159.32 25.746C159.32 28.0705 161.587 29.9498 164.389 29.9498C167.19 29.9498 169.457 28.0705 169.457 25.746C169.457 23.4214 167.19 21.5421 164.389 21.5421ZM164.389 27.8479C162.895 27.8479 161.681 26.9056 161.681 25.7408C161.681 24.5759 162.895 23.6337 164.389 23.6337C165.883 23.6337 167.097 24.5759 167.097 25.7408C167.097 26.9056 165.883 27.8479 164.389 27.8479Z" fill="white"/>
</g>
<defs>
<clipPath id="clip0_121_823">
<rect width="193" height="32" fill="white"/>
</clipPath>
</defs>
</svg>
