<svg width="32" height="32" viewBox="0 0 32 32" fill="none" xmlns="http://www.w3.org/2000/svg">
<g clip-path="url(#clip0_168_51)">
<rect width="32" height="32" fill="white"/>
<rect x="0.5" y="0.5" width="31" height="31" fill="white" stroke="#ACACAC"/>
<path fill-rule="evenodd" clip-rule="evenodd" d="M11.3899 6C9.74716 6 8.1031 6.62084 6.86186 7.86208C4.37938 10.3446 4.37938 14.4339 6.86186 16.9164H6.86384C7.8743 17.9251 8.90478 18.9569 9.92998 19.9828C10.6113 20.6643 11.2861 21.3384 11.9672 22.02L12.3152 22.368L13.0098 23.0643L16.4932 19.5826L15.7969 18.8863L13.4117 16.501C12.3861 15.4747 11.3569 14.444 10.3436 13.4327C9.73836 12.8264 9.73726 11.9499 10.3436 11.3438C10.9497 10.7375 11.8281 10.7375 12.4345 11.3438L15.5008 14.4119L17.8861 16.7972L18.5824 17.4917L22.0641 14.01L21.3695 13.3154L18.9825 10.9302L15.9162 7.86208C14.6749 6.62084 13.0326 6 11.3899 6ZM11.3899 6.98296C12.7803 6.98296 14.1698 7.50832 15.2199 8.55838L18.286 11.6267L16.1971 13.7158L13.1308 10.6477C12.9024 10.4183 12.631 10.2363 12.3321 10.112C12.0332 9.98781 11.7127 9.92386 11.389 9.92386C11.0653 9.92386 10.7448 9.98781 10.4459 10.112C10.147 10.2363 9.87562 10.4183 9.64728 10.6477C9.41812 10.876 9.2363 11.1473 9.11223 11.4461C8.98817 11.7448 8.9243 12.0651 8.9243 12.3886C8.9243 12.7121 8.98817 13.0324 9.11223 13.3311C9.2363 13.6298 9.41812 13.9011 9.64728 14.1294C10.6599 15.1401 11.6893 16.1708 12.7154 17.1976L10.6263 19.2865C9.60108 18.2604 8.57126 17.2295 7.56014 16.2203H7.55816C5.45826 14.1202 5.45826 10.6587 7.55816 8.5586C8.60822 7.50854 9.99994 6.9834 11.3899 6.9834M25.4323 15.3973C25.2266 15.3972 25.023 15.4377 24.833 15.5163C24.643 15.595 24.4704 15.7103 24.3249 15.8557C24.1795 16.0011 24.0642 16.1738 23.9855 16.3638C23.9069 16.5538 23.8665 16.7574 23.8665 16.963C23.8665 17.548 24.1899 18.0538 24.6647 18.3231C24.4029 20.1563 24.1422 22.0314 23.8665 23.84C23.5373 23.8406 23.2167 23.9457 22.9509 24.1401L20.3406 22.2791C20.367 22.1649 20.3828 22.0475 20.3828 21.9254C20.3828 21.0599 19.6824 20.3576 18.8171 20.3576C18.4014 20.3579 18.0028 20.5231 17.7088 20.8171C17.4149 21.111 17.2496 21.5096 17.2494 21.9254C17.2494 22.7906 17.9516 23.4911 18.8171 23.4911C19.2006 23.4911 19.5468 23.3485 19.8192 23.1197L22.3778 24.9413C22.3312 25.0896 22.2986 25.2436 22.2986 25.4071C22.2986 26.2723 23.0011 26.9728 23.8665 26.9728C24.0722 26.9729 24.2758 26.9325 24.4658 26.8538C24.6558 26.7752 24.8285 26.6598 24.9739 26.5144C25.1193 26.369 25.2346 26.1964 25.3133 26.0064C25.3919 25.8164 25.4324 25.6127 25.4323 25.4071C25.4323 24.9048 25.1918 24.4626 24.8244 24.176L25.6342 18.5088C26.4031 18.4089 27 17.7586 27 16.9624C27 16.0969 26.2978 15.3966 25.4323 15.3966" fill="#373737"/>
</g>
<defs>
<clipPath id="clip0_168_51">
<rect width="32" height="32" fill="white"/>
</clipPath>
</defs>
</svg>
