<svg width="32" height="32" viewBox="0 0 32 32" fill="none" xmlns="http://www.w3.org/2000/svg">
<g clip-path="url(#clip0_168_47)">
<rect width="32" height="32" fill="white"/>
<rect x="0.5" y="0.5" width="31" height="31" fill="white" stroke="#ACACAC"/>
<path d="M18.0424 9.61687L16.3403 11.2337M10.4681 12.9357L8 12.2549M11.234 16.3396L9.617 18.0416M12.2553 8L12.9361 10.4679M13.8187 14.3739C13.7857 14.2961 13.7766 14.2103 13.7927 14.1274C13.8089 14.0445 13.8494 13.9683 13.9091 13.9086C13.9688 13.8489 14.045 13.8084 14.1279 13.7923C14.2108 13.7762 14.2966 13.7852 14.3744 13.8182L23.736 17.6476C23.8193 17.6818 23.8896 17.7415 23.9368 17.8182C23.984 17.8949 24.0057 17.9846 23.9987 18.0743C23.9917 18.1641 23.9564 18.2493 23.8979 18.3178C23.8393 18.3862 23.7606 18.4343 23.673 18.4552L19.9718 19.3411C19.819 19.3775 19.6793 19.4556 19.5681 19.5666C19.457 19.6776 19.3787 19.8172 19.342 19.9699L18.4569 23.6717C18.4363 23.7596 18.3882 23.8387 18.3197 23.8975C18.2511 23.9562 18.1657 23.9917 18.0757 23.9987C17.9856 24.0057 17.8957 23.9839 17.8189 23.9365C17.7421 23.889 17.6824 23.8183 17.6484 23.7347L13.8187 14.3739Z" stroke="black" stroke-linecap="round" stroke-linejoin="round"/>
</g>
<defs>
<clipPath id="clip0_168_47">
<rect width="32" height="32" fill="white"/>
</clipPath>
</defs>
</svg>
