<svg width="147" height="24" viewBox="0 0 147 24" fill="none" xmlns="http://www.w3.org/2000/svg">
<g clip-path="url(#clip0_223_45)">
<path d="M29.8206 8.17711V8.16934C30.0538 6.81811 30.1644 5.92116 30.1644 5.43192C30.1644 4.67865 30.0538 4.27095 29.8364 4.18164H29.6033H29.5954L29.0383 4.38743L28.7301 4.51168C28.5997 4.59711 28.4851 4.68641 28.3824 4.78348L27.8094 5.29991L26.7544 6.54631L26.7465 6.55795V7.1598C26.7465 8.7013 26.6359 9.88169 26.4186 10.6583V11.1126C26.4186 11.2756 26.3514 11.5125 26.225 11.8348C26.225 11.8348 26.0313 12.3007 25.9997 12.3823C25.6481 12.491 25.3359 12.5647 25.0712 12.6036C24.6523 12.6774 24.2849 12.7007 23.9806 12.6774L22.7834 12.5686L21.274 12.7472C21.2819 12.7472 20.4956 12.6774 20.4956 12.6774C20.0096 12.6774 19.4485 12.7705 18.8202 12.9608C18.4962 12.8676 18.4409 12.7977 18.433 12.7667C18.4488 12.7472 18.4883 12.7045 18.4883 12.7045L18.7096 11.431L19.0415 9.83121C19.2351 8.99251 19.3774 8.4295 19.4564 8.16546C19.6184 7.4549 19.7488 6.82199 19.8357 6.28615C19.974 5.97164 20.0451 5.71926 20.0451 5.52511C20.0451 5.15236 19.9226 4.88056 19.6856 4.70583C19.4524 4.53886 19.1205 4.44956 18.6977 4.44956C18.3105 4.44956 18.0142 4.5078 17.8205 4.62429L16.8999 5.33485L16.892 5.34262V5.35038C16.8051 5.55618 16.7616 5.69208 16.7537 5.78138C16.7221 5.88622 16.7063 6.12307 16.7063 6.48418L16.5838 7.61021C16.3388 9.84674 16.0741 11.7105 15.7896 13.1511C15.6829 13.4695 15.4972 13.815 15.2325 14.1684C14.9203 14.5838 14.7227 14.8828 14.6516 15.0537V15.0692V15.0808C14.7583 15.5118 15.0665 16.1409 15.5999 16.9951C15.5565 17.0572 15.5288 17.1543 15.5288 17.3174C15.5288 17.3135 15.4774 17.6707 15.4774 17.6707V17.6824V17.6901C15.4932 17.7367 15.513 17.8571 15.513 18.1444C15.513 18.5094 15.5683 19.022 15.6829 19.6782L15.8172 20.7925C15.9397 21.6468 16.0069 21.806 16.0504 21.8487C16.1175 21.9652 16.2874 22.0273 16.5522 22.0273C17.2595 22.0273 17.9075 21.7167 18.4686 21.1032C18.7965 20.7498 19.1877 20.1363 19.646 19.2782H19.65V19.2627C19.65 19.1346 19.5157 19.0686 19.2549 19.0686C19.2509 19.0686 19.1008 19.0957 19.1008 19.0957L18.9862 19.1229L18.8163 19.3636L18.5752 19.6005C18.5752 19.6005 18.5239 19.6122 18.429 19.6122C18.105 19.6122 17.9391 19.0686 17.9391 18.0046C17.9391 18.0046 18.1446 16.0982 18.1564 15.9584C18.1762 15.939 18.599 15.5468 18.599 15.5468C18.599 15.5468 19.1403 15.1934 19.1837 15.1624C19.7646 15.1624 20.3099 15.0498 20.8038 14.8246C21.1159 14.6848 21.9852 14.5411 23.3761 14.4091L24.5061 14.2654C24.5061 14.2654 25.3991 14.1062 25.6125 14.0713C25.6086 14.2227 25.5927 14.3936 25.5651 14.5838L25.407 15.3022L24.9447 17.4222L24.5654 18.9249C24.5654 19.1384 24.4627 19.6122 24.2612 20.3305C24.2612 20.3382 24.1624 21.9341 24.1624 21.9341L24.0162 22.3224L23.8897 22.7534L24.0162 23.2815L24.0754 23.7707V23.7901L24.0952 23.7979C24.2295 23.8755 24.3362 23.9144 24.4153 23.9221L24.8894 23.9959H24.9013L25.3359 23.7746C25.3399 23.7746 25.6125 23.5921 25.6125 23.5921C25.7547 23.4018 25.8891 23.0485 26.0274 22.536L26.2882 21.6118C26.545 20.8314 26.7149 20.2645 26.8137 19.8762L27.3866 18.2803L27.4854 17.6707C27.517 17.4533 27.5368 17.2669 27.5368 17.0999C27.5368 16.9873 27.5921 16.8437 27.7067 16.6689C27.8252 16.4903 27.8963 16.3467 27.9161 16.2535C27.9161 16.0516 27.9951 15.6633 28.1453 15.1119L28.489 13.8616C28.6273 13.5199 28.6945 13.1394 28.6945 12.7317C29.0264 12.0483 29.3662 10.8369 29.6981 9.1323L29.7495 8.87991L29.8246 8.60811C29.8246 8.60811 29.7574 8.29748 29.7535 8.26642C29.7693 8.25089 29.8206 8.17711 29.8206 8.17711Z" fill="#707070"/>
<path d="M14.0747 3.78174C13.7428 3.78174 13.4662 3.8128 13.2449 3.87493L12.9881 3.96423L11.9331 4.34475L10.5146 4.86118C8.56661 5.6028 6.8715 6.50363 5.47274 7.54424C4.40984 8.49942 3.66305 9.57886 3.24816 10.7476C3.24816 11.1437 3.23236 11.396 3.20075 11.5048C3.24816 11.9319 3.3746 12.2891 3.58007 12.5803C3.76973 12.856 3.92383 12.9919 4.05028 13.0191C4.04237 13.0618 4.03052 13.1394 4.03052 13.1394C4.03052 13.3647 4.12535 13.5743 4.31106 13.7568C5.17639 14.4286 6.21558 15.5002 7.39702 16.9369C7.72498 17.3407 7.88698 17.694 7.88698 17.9969C7.88698 17.9969 7.87513 18.1173 7.86723 18.1639C7.71708 18.2532 7.57483 18.3541 7.43653 18.4706C7.23897 18.6376 7.12043 18.7968 7.08487 18.9443C7.02165 18.9909 6.97818 19.0259 6.97818 19.0259C6.89916 19.088 6.82804 19.1695 6.76086 19.2783V19.286C6.76086 19.286 6.75691 19.4569 6.75691 19.4841C6.72925 19.5073 6.2472 19.884 6.2472 19.884L5.52806 20.3732C5.3463 20.4936 5.15664 20.5713 4.96303 20.614C4.94327 20.5907 4.8919 20.5324 4.8919 20.5324C4.8919 20.5324 4.87215 20.5169 4.86029 20.5014C4.8761 20.4548 4.92746 20.3888 5.06971 20.2917L5.90343 20.0082C6.08519 19.9112 6.16817 19.783 6.16027 19.6238C6.14446 19.4219 6.02197 19.3132 5.8086 19.3132L5.55177 19.321L2.24453 20.5713L1.65974 20.7887L1.15398 21.0411L0.67587 21.2546L0.213569 21.5808C0.0713224 21.7167 0.00415039 21.9225 0.00415039 22.1943C0.00415039 22.369 0.0555172 22.5049 0.162202 22.5903C0.296546 22.734 0.513867 22.8544 0.814166 22.9398L1.5333 23.1534C1.94028 23.1534 2.2801 23.1068 2.56064 23.0058L3.63539 22.6369L4.44145 22.3224C4.84053 22.0545 5.39767 21.7633 6.09705 21.4449L7.60249 20.7576C8.02923 20.4936 8.33743 20.2878 8.51524 20.1441L8.90642 19.7947C8.99335 19.717 9.09213 19.6432 9.20276 19.5772C9.35686 19.5539 9.51096 19.5384 9.66506 19.5268C9.80336 19.5268 9.98512 19.4996 10.1985 19.4685C10.5818 19.4103 11.0599 19.3404 11.4787 19.4219H11.4985L11.5143 19.4025L11.5933 19.3093C11.6921 19.2239 11.7474 19.1967 11.779 19.1851L12.2413 19.22L12.6127 19.3132H12.6285L12.7629 19.2472L12.9407 19.1385C13.1264 18.9832 13.2173 18.855 13.2252 18.7463C13.2291 18.6919 13.2133 18.6454 13.1778 18.6065H13.1699L13.162 18.5988C12.2492 18.2454 11.4906 18.0008 10.89 17.8571C10.8267 17.8183 10.7438 17.7911 10.6252 17.7834C10.6845 17.5504 10.7161 17.3019 10.7161 17.0378C10.7161 16.4244 10.4593 15.741 9.95351 14.9993L8.47177 13.3025C8.00552 12.7706 7.60249 12.2153 7.27848 11.6484C7.09277 11.3417 6.97819 11.1242 6.92287 10.9961C6.76482 10.6195 6.68184 10.2428 6.68184 9.88172C6.88731 9.26823 7.3259 8.65862 7.97786 8.08395C8.697 7.44716 9.44774 7.00063 10.2143 6.74825L10.2894 6.72495C10.2894 6.72495 10.3328 6.74825 10.3842 6.77931C10.3605 6.93074 10.242 7.06276 10.0207 7.17536L9.26203 7.55977C9.01705 7.73838 8.87481 7.89758 8.81554 8.04513V8.15773C8.81554 8.35964 8.93408 8.48777 9.1751 8.53825C9.19091 8.53825 9.4675 8.49166 9.4675 8.49166C10.9729 8.01406 12.6404 7.18313 14.4303 6.01827C14.4777 6.00274 14.5212 5.97556 14.5528 5.94061C14.5805 5.90178 14.6358 5.79306 14.703 5.64551C14.8492 5.31935 14.9479 5.07473 14.9993 4.9233C15.0151 4.83788 15.027 4.74857 15.027 4.64762C15.027 4.08072 14.7109 3.79339 14.0826 3.79339L14.0747 3.78174Z" fill="#707070"/>
<path d="M3.96712 4.69439C3.96712 4.69439 4.26742 5.54862 5.1288 5.26517C5.95067 4.99337 7.61021 4.72157 7.62602 4.71768H7.63392L8.75609 3.61495C8.76399 3.60718 9.59771 1.96473 9.59771 1.96473V1.95696V0.563016L8.73633 0H7.60231L6.20355 0.827051L4.80084 1.6541C4.80084 1.6541 4.53215 2.44232 4.5282 2.47339C4.44918 2.51221 3.63916 2.9471 3.63916 3.6033C3.63916 3.68872 3.65497 3.78191 3.68262 3.8751L3.96317 4.69439H3.96712Z" fill="#707070"/>
<path d="M42.6621 16.2496L41.4609 17.4766L38.122 14.2771C37.2488 15.7953 35.9488 16.8476 34.7318 17.5271L33.5623 16.2186C36.1938 14.8945 37.2488 12.6774 37.2488 10.8214V7.55976H38.9913C38.9913 7.55976 39.0822 10.7748 38.8254 12.5803L42.6581 16.2496H42.6621ZM46.4158 22.07H44.6733V13.1317H41.0381V11.5009H44.6733V7.10547H46.4158V22.0739V22.07Z" fill="#707070"/>
<path d="M61.5375 14.9955H55.4565V15.8498H58.5504V19.7753H52.4298V20.5014H58.9455V22.0701H50.6873V18.2028H56.8078V17.4184H50.6873V15.8459H53.714V14.9916H47.7515V13.3608H61.5375V14.9916V14.9955Z" fill="#707070"/>
<path d="M76.3311 16.4125H70.2027V22.0698H68.4601V16.4125H62.5767V14.7817H76.3311V16.4125ZM74.6084 12.65L73.4546 13.943L69.6376 11.8268C68.3218 12.7626 66.7255 13.5081 65.0976 13.8964L63.9794 12.5063C66.8401 11.8579 69.0291 10.3708 70.1157 9.14378H65.0146V7.55957H72.9449C72.7631 8.61183 72.0558 9.71068 71.0364 10.6969L74.6044 12.6539L74.6084 12.65Z" fill="#707070"/>
<path d="M84.0757 14.976H77.5007V7.55586H83.321V9.19054H79.2433V10.3709H83.321V12.0017H79.2433V13.3607H84.0757V14.976ZM89.7655 22.07H88.0072V18.323H81.1794V16.6767H89.7695V22.0739L89.7655 22.07ZM89.7655 15.9545H88.023V11.9124H86.569V15.6478H84.8264V7.10156H86.569V10.2816H88.023V7.10156H89.7655V15.9545Z" fill="#707070"/>
<path d="M104.532 19.4489H90.9075V17.8142H96.87V15.3913H98.6125V17.8142H104.528V19.4489H104.532ZM102.026 14.4749H93.7208V7.55566H102.026V9.17094H95.4633V12.8247H102.026V14.4749Z" fill="#707070"/>
<path d="M116.974 22.07H115.231V7.10156H116.974V22.07Z" fill="#707070"/>
<path d="M132.159 15.5H118.389V13.8848H123.711V11.2483H125.454V13.8848H132.159V15.5ZM129.322 7.55957C129.322 10.1922 129.207 11.7802 128.761 13.3606H126.935C127.346 12.021 127.477 10.2737 127.512 9.20591H121.131V7.55957H129.322Z" fill="#707070"/>
<path d="M147 13.3879H144.285V22.07H142.543V7.10156H144.285V11.7571H147V13.3879Z" fill="#707070"/>
<path d="M113.825 16.2494L112.624 17.4764L109.285 14.2769C108.412 15.7951 107.112 16.8474 105.895 17.5269L104.725 16.2184C107.357 14.8943 108.412 12.6772 108.412 10.8212V7.55957H110.154C110.154 7.55957 110.245 10.7746 109.988 12.5801L113.821 16.2494H113.825Z" fill="#707070"/>
<path d="M141.614 16.2494L140.413 17.4764L137.074 14.2769C136.201 15.7951 134.901 16.8474 133.684 17.5269L132.514 16.2184C135.146 14.8943 136.201 12.6772 136.201 10.8212V7.55957H137.943C137.943 7.55957 138.034 10.7746 137.778 12.5801L141.61 16.2494H141.614Z" fill="#707070"/>
<path d="M54.6502 6.62012C52.5205 6.62012 50.7898 8.0296 50.7898 9.77301C50.7898 11.5164 52.5165 12.9259 54.6502 12.9259C56.7839 12.9259 58.5106 11.5164 58.5106 9.77301C58.5106 8.0296 56.7839 6.62012 54.6502 6.62012ZM54.6502 11.3494C53.5122 11.3494 52.5876 10.6428 52.5876 9.76912C52.5876 8.89548 53.5122 8.1888 54.6502 8.1888C55.7882 8.1888 56.7128 8.89548 56.7128 9.76912C56.7128 10.6428 55.7882 11.3494 54.6502 11.3494Z" fill="#707070"/>
<path d="M125.209 16.1562C123.079 16.1562 121.348 17.5657 121.348 19.3091C121.348 21.0525 123.075 22.462 125.209 22.462C127.342 22.462 129.069 21.0525 129.069 19.3091C129.069 17.5657 127.342 16.1562 125.209 16.1562ZM125.209 20.8856C124.071 20.8856 123.146 20.1789 123.146 19.3053C123.146 18.4316 124.071 17.7249 125.209 17.7249C126.347 17.7249 127.271 18.4316 127.271 19.3053C127.271 20.1789 126.347 20.8856 125.209 20.8856Z" fill="#707070"/>
</g>
<defs>
<clipPath id="clip0_223_45">
<rect width="147" height="24" fill="white"/>
</clipPath>
</defs>
</svg>
