<svg width="20" height="20" viewBox="0 0 20 20" fill="none" xmlns="http://www.w3.org/2000/svg">
<path d="M10.0001 0.833496C7.07963 0.833496 4.69705 3.22643 4.69705 6.15958C4.69705 7.96969 5.61372 9.57132 6.99326 10.5346C3.88341 11.7535 1.66675 14.797 1.66675 18.3335H3.1819C3.1819 14.9872 5.59932 12.1902 8.76902 11.6044L9.24251 13.0074H10.7577L11.2311 11.6044C14.4008 12.1902 16.8183 14.9872 16.8183 18.3335H18.3334C18.3334 14.797 16.1167 11.7535 13.0069 10.5346C14.3857 9.57132 15.3031 7.96969 15.3031 6.15958C15.3031 3.22643 12.9205 0.833496 10.0001 0.833496ZM10.0001 2.35524C12.1008 2.35524 13.788 4.04969 13.788 6.15958C13.788 8.26947 12.1008 9.96393 10.0001 9.96393C7.89932 9.96393 6.2122 8.26947 6.2122 6.15958C6.2122 4.04969 7.89932 2.35524 10.0001 2.35524ZM9.24251 13.7683L8.48493 18.3335H11.5152L10.7577 13.7683H9.24251Z" fill="#9AA6B5"/>
</svg>
