<svg width="20" height="20" viewBox="0 0 20 20" fill="none" xmlns="http://www.w3.org/2000/svg">
<path d="M0.561608 16C0.402112 16 0.268823 15.9431 0.161743 15.8292C0.0539145 15.7154 0 15.5739 0 15.4047C0 15.2355 0.0539145 15.0948 0.161743 14.9825C0.269572 14.8702 0.40286 14.8133 0.561608 14.8117H10.1741C10.3328 14.8117 10.4661 14.869 10.574 14.9837C10.6818 15.0983 10.7357 15.239 10.7357 15.4059C10.7357 15.5727 10.6818 15.7134 10.574 15.828C10.4661 15.9427 10.3328 15.9996 10.1741 15.9988L0.561608 16ZM0.561608 10.3207C0.402112 10.3207 0.268823 10.2637 0.161743 10.1499C0.0539145 10.036 0 9.89531 0 9.7277C0 9.5593 0.0539145 9.41817 0.161743 9.30432C0.269572 9.19048 0.40286 9.13395 0.561608 9.13474H4.45019C4.60893 9.13474 4.74222 9.19166 4.85005 9.30551C4.95788 9.41936 5.01179 9.56048 5.01179 9.72888C5.01179 9.89728 4.95788 10.038 4.85005 10.1511C4.74222 10.2641 4.60893 10.3207 4.45019 10.3207H0.561608ZM0.561608 4.64249C0.402112 4.64249 0.268823 4.58557 0.161743 4.47172C0.0539145 4.35787 0 4.21675 0 4.04835C0 3.87995 0.0539145 3.73922 0.161743 3.62616C0.269572 3.51311 0.40286 3.45658 0.561608 3.45658H4.45019C4.60893 3.45658 4.74222 3.5135 4.85005 3.62735C4.95788 3.7412 5.01179 3.88193 5.01179 4.04954C5.01179 4.21715 4.95788 4.35787 4.85005 4.47172C4.74222 4.58557 4.60893 4.64249 4.45019 4.64249H0.561608ZM12.2689 12.5099C11.0079 12.5099 9.93336 12.0497 9.04527 11.1294C8.15718 10.2092 7.71238 9.08454 7.71088 7.75552C7.70939 6.4265 8.15418 5.30186 9.04527 4.38159C9.93635 3.46132 11.0128 3.00079 12.2745 3C13.5363 2.99921 14.6104 3.45974 15.497 4.38159C16.3836 5.30186 16.8269 6.42255 16.8269 7.74366C16.8269 8.271 16.7438 8.78608 16.5776 9.28891C16.4106 9.79174 16.168 10.2499 15.8497 10.6634L19.8203 14.7868C19.9401 14.8927 20 15.0272 20 15.19C20 15.3529 19.9401 15.498 19.8203 15.6252C19.7199 15.7359 19.5926 15.7913 19.4384 15.7913C19.2826 15.7913 19.1449 15.7359 19.025 15.6252L15.0556 11.5018C14.649 11.8228 14.2079 12.0711 13.7325 12.2466C13.2562 12.4221 12.7684 12.5099 12.2689 12.5099ZM12.2689 11.3239C13.2229 11.3239 14.0338 10.978 14.7018 10.2863C15.3697 9.59448 15.7037 8.7509 15.7037 7.75552C15.7037 6.76014 15.3697 5.91617 14.7018 5.22359C14.0338 4.53102 13.2229 4.18513 12.2689 4.18592C11.3149 4.18671 10.504 4.5326 9.83601 5.22359C9.16807 5.91458 8.8341 6.75856 8.8341 7.75552C8.8341 8.75248 9.16807 9.59606 9.83601 10.2863C10.504 10.9765 11.3149 11.3224 12.2689 11.3239Z" fill="#9AA6B5"/>
</svg>
