<svg width="20" height="20" viewBox="0 0 20 20" fill="none" xmlns="http://www.w3.org/2000/svg">
<path d="M13.3333 3.33496C15.1458 3.34496 16.1275 3.42579 16.7675 4.06579C17.5 4.79829 17.5 5.97663 17.5 8.33329V13.3333C17.5 15.6908 17.5 16.8691 16.7675 17.6016C16.0358 18.3333 14.8567 18.3333 12.5 18.3333H7.5C5.14333 18.3333 3.96417 18.3333 3.2325 17.6016C2.5 16.8683 2.5 15.6908 2.5 13.3333V8.33329C2.5 5.97663 2.5 4.79829 3.2325 4.06579C3.8725 3.42579 4.85417 3.34496 6.66667 3.33496" stroke="#9AA6B5"/>
<path d="M8.74992 11.6667H14.1666M5.83325 11.6667H6.24992M5.83325 8.75H6.24992M5.83325 14.5833H6.24992M8.74992 8.75H14.1666M8.74992 14.5833H14.1666" stroke="#9AA6B5" stroke-linecap="round"/>
<path d="M6.66675 2.9165C6.66675 2.58498 6.79844 2.26704 7.03286 2.03262C7.26728 1.7982 7.58523 1.6665 7.91675 1.6665H12.0834C12.4149 1.6665 12.7329 1.7982 12.9673 2.03262C13.2017 2.26704 13.3334 2.58498 13.3334 2.9165V3.74984C13.3334 4.08136 13.2017 4.3993 12.9673 4.63372C12.7329 4.86814 12.4149 4.99984 12.0834 4.99984H7.91675C7.58523 4.99984 7.26728 4.86814 7.03286 4.63372C6.79844 4.3993 6.66675 4.08136 6.66675 3.74984V2.9165Z" stroke="#9AA6B5"/>
</svg>
